<?xml version="1.0" encoding="UTF-8" standalone="no"?>
<!DOCTYPE svg PUBLIC "-//W3C//DTD SVG 1.1//EN"
 "http://www.w3.org/Graphics/SVG/1.1/DTD/svg11.dtd">
<!-- Generated by graphviz version 2.47.3 (20210619.1520)
 -->
<!-- Title: G Pages: 1 -->
<svg width="452pt" height="704pt"
 viewBox="0.00 0.00 452.00 704.00" xmlns="http://www.w3.org/2000/svg" xmlns:xlink="http://www.w3.org/1999/xlink">
<g id="graph0" class="graph" transform="scale(1 1) rotate(0) translate(4 700)">
<title>G</title>
<polygon fill="white" stroke="transparent" points="-4,4 -4,-700 448,-700 448,4 -4,4"/>
<g id="clust1" class="cluster">
<title>cluster_c1</title>
<g id="a_clust1"><a xlink:href="http://openprovenance.org/vargen#b" xlink:title="vargen:b">
<polygon fill="none" stroke="black" points="8,-8 8,-688 436,-688 436,-8 8,-8"/>
<text text-anchor="middle" x="222" y="-15.8" font-family="Times,serif" font-size="14.00">vargen:b</text>
</a>
</g>
</g>
<!-- n1 -->
<g id="node1" class="node">
<title>n1</title>
<g id="a_node1"><a xlink:href="http://openprovenance.org/var#staff" xlink:title="var:staff">
<polygon fill="#fed37f" stroke="black" points="225.73,-283.56 175,-296 124.27,-283.56 124.32,-263.44 225.68,-263.44 225.73,-283.56"/>
<text text-anchor="middle" x="175" y="-274.3" font-family="Times,serif" font-size="14.00">var:staff</text>
</a>
</g>
</g>
<!-- b1 -->
<g id="node11" class="node">
<title>b1</title>
<ellipse fill="gray" stroke="gray" cx="62" cy="-374" rx="1.8" ry="1.8"/>
</g>
<!-- n1&#45;&gt;b1 -->
<g id="edge7" class="edge">
<title>n1&#45;&gt;b1</title>
<path fill="none" stroke="#fed37f" d="M142.68,-288.1C110.49,-297.31 65.49,-310.67 63,-314 48.76,-333.03 59.51,-366.02 61.65,-372.04"/>
<text text-anchor="middle" x="98.5" y="-317" font-family="Times,serif" font-size="10.00">actedOnBehalfOf</text>
</g>
<!-- ann1 -->
<g id="node2" class="node">
<title>ann1</title>
<polygon fill="none" stroke="gray" points="182,-213 16,-213 16,-177 188,-177 188,-207 182,-213"/>
<polyline fill="none" stroke="gray" points="182,-213 182,-207 "/>
<polyline fill="none" stroke="gray" points="188,-207 182,-207 "/>
<g id="a_node2_0"><a xlink:href="http://www.w3.org/ns/prov#type" xlink:title="&lt;TABLE&gt;">
<text text-anchor="start" x="26" y="-199" font-family="Times,serif" font-size="10.00">prov:type</text>
</a>
</g>
<g id="a_node2_1"><a xlink:href="http://www.w3.org/ns/prov#Person" xlink:title="&lt;TABLE&gt;">
<text text-anchor="start" x="67" y="-199" font-family="Times,serif" font-size="10.00">prov:Person</text>
</a>
</g>
<g id="a_node2_2"><a xlink:href="http://www.w3.org/ns/prov#type" xlink:title="&lt;TABLE&gt;">
<text text-anchor="start" x="26" y="-186" font-family="Times,serif" font-size="10.00">prov:type</text>
</a>
</g>
<g id="a_node2_3"><a xlink:href="http://openprovenance.org/ns/school-admission#SchoolAdmissionOfficer" xlink:title="&lt;TABLE&gt;">
<text text-anchor="start" x="67" y="-186" font-family="Times,serif" font-size="10.00">sa:SchoolAdmissionOfficer</text>
</a>
</g>
</g>
<!-- ann1&#45;&gt;n1 -->
<g id="edge1" class="edge">
<title>ann1&#45;&gt;n1</title>
<path fill="none" stroke="gray" stroke-dasharray="5,2" d="M117.48,-213.18C130.96,-228.13 150.23,-249.52 162.68,-263.33"/>
</g>
<!-- n2 -->
<g id="node3" class="node">
<title>n2</title>
<g id="a_node3"><a xlink:href="http://openprovenance.org/var#school" xlink:title="var:school">
<polygon fill="#fed37f" stroke="black" points="185.01,-667.56 125,-680 64.99,-667.56 65.05,-647.44 184.95,-647.44 185.01,-667.56"/>
<text text-anchor="middle" x="125" y="-658.3" font-family="Times,serif" font-size="14.00">var:school</text>
</a>
</g>
</g>
<!-- ann2 -->
<g id="node4" class="node">
<title>ann2</title>
<polygon fill="none" stroke="gray" points="358,-597 232,-597 232,-548 364,-548 364,-591 358,-597"/>
<polyline fill="none" stroke="gray" points="358,-597 358,-591 "/>
<polyline fill="none" stroke="gray" points="364,-591 358,-591 "/>
<g id="a_node4_4"><a xlink:href="http://www.w3.org/ns/prov#type" xlink:title="&lt;TABLE&gt;">
<text text-anchor="start" x="242" y="-582.5" font-family="Times,serif" font-size="10.00">prov:type</text>
</a>
</g>
<g id="a_node4_5"><a xlink:href="http://openprovenance.org/ns/school-admission#School" xlink:title="&lt;TABLE&gt;">
<text text-anchor="start" x="285" y="-582.5" font-family="Times,serif" font-size="10.00">sa:School</text>
</a>
</g>
<g id="a_node4_6"><a xlink:href="http://www.w3.org/ns/prov#type" xlink:title="&lt;TABLE&gt;">
<text text-anchor="start" x="242" y="-569.5" font-family="Times,serif" font-size="10.00">prov:type</text>
</a>
</g>
<g id="a_node4_7"><a xlink:href="http://openprovenance.org/var#school_type" xlink:title="&lt;TABLE&gt;">
<text text-anchor="start" x="285" y="-569.5" font-family="Times,serif" font-size="10.00">var:school_type</text>
</a>
</g>
<g id="a_node4_8"><a xlink:href="http://openprovenance.org/tmpl#label" xlink:title="&lt;TABLE&gt;">
<text text-anchor="start" x="242" y="-556.5" font-family="Times,serif" font-size="10.00">tmpl:label</text>
</a>
</g>
<g id="a_node4_9"><a xlink:href="http://openprovenance.org/var#school_name" xlink:title="&lt;TABLE&gt;">
<text text-anchor="start" x="285" y="-556.5" font-family="Times,serif" font-size="10.00">var:school_name</text>
</a>
</g>
</g>
<!-- ann2&#45;&gt;n2 -->
<g id="edge2" class="edge">
<title>ann2&#45;&gt;n2</title>
<path fill="none" stroke="gray" stroke-dasharray="5,2" d="M253.38,-597.02C235.86,-606.17 215.54,-616.68 197,-626 182.72,-633.18 166.74,-640.97 153.47,-647.38"/>
</g>
<!-- n3 -->
<g id="node5" class="node">
<title>n3</title>
<g id="a_node5"><a xlink:href="http://openprovenance.org/vargen#allocating" xlink:title="vargen:allocating">
<polygon fill="#9fb1fc" stroke="#0000ff" points="349.5,-494.5 236.5,-494.5 236.5,-458.5 349.5,-458.5 349.5,-494.5"/>
<text text-anchor="middle" x="293" y="-472.8" font-family="Times,serif" font-size="14.00">vargen:allocating</text>
</a>
</g>
</g>
<!-- n5 -->
<g id="node9" class="node">
<title>n5</title>
<g id="a_node9"><a xlink:href="http://openprovenance.org/var#admission_policy" xlink:title="var:admission_policy">
<ellipse fill="#fffc87" stroke="#808080" cx="125" cy="-572.5" rx="89.08" ry="18"/>
<text text-anchor="middle" x="125" y="-568.8" font-family="Times,serif" font-size="14.00">var:admission_policy</text>
</a>
</g>
</g>
<!-- n3&#45;&gt;n5 -->
<g id="edge20" class="edge">
<title>n3&#45;&gt;n5</title>
<path fill="none" stroke="#8b0000" d="M262.58,-494.52C234.56,-510.2 192.88,-533.52 162.75,-550.38"/>
<polygon fill="#8b0000" stroke="#8b0000" points="160.81,-547.45 153.79,-555.39 164.23,-553.56 160.81,-547.45"/>
<text text-anchor="middle" x="223.5" y="-522" font-family="Times,serif" font-size="10.00" fill="red">used</text>
</g>
<!-- b2 -->
<g id="node12" class="node">
<title>b2</title>
<ellipse fill="gray" stroke="gray" cx="406" cy="-572.5" rx="1.8" ry="1.8"/>
</g>
<!-- n3&#45;&gt;b2 -->
<g id="edge10" class="edge">
<title>n3&#45;&gt;b2</title>
<path fill="none" stroke="black" d="M316.06,-494.7C330.28,-505.15 349,-518.63 366,-530 378.61,-538.43 384.92,-536.66 395,-548 401.46,-555.27 404.85,-567 405.75,-570.49"/>
<text text-anchor="middle" x="394" y="-522" font-family="Times,serif" font-size="10.00">wasStartedBy</text>
</g>
<!-- b3 -->
<g id="node14" class="node">
<title>b3</title>
<ellipse fill="gray" stroke="gray" cx="384" cy="-572.5" rx="1.8" ry="1.8"/>
</g>
<!-- n3&#45;&gt;b3 -->
<g id="edge12" class="edge">
<title>n3&#45;&gt;b3</title>
<path fill="none" stroke="#fed37f" d="M272.85,-494.6C262.54,-505.4 253.89,-519.28 263,-530 295.08,-567.75 333.49,-518.11 373,-548 380.76,-553.87 383.26,-566.56 383.85,-570.39"/>
<text text-anchor="middle" x="303" y="-522" font-family="Times,serif" font-size="10.00">wasAssociatedWith</text>
</g>
<!-- ann3 -->
<g id="node6" class="node">
<title>ann3</title>
<polygon fill="none" stroke="gray" points="382,-405 158,-405 158,-343 388,-343 388,-399 382,-405"/>
<polyline fill="none" stroke="gray" points="382,-405 382,-399 "/>
<polyline fill="none" stroke="gray" points="388,-399 382,-399 "/>
<g id="a_node6_10"><a xlink:href="http://www.w3.org/ns/prov#type" xlink:title="&lt;TABLE&gt;">
<text text-anchor="start" x="168" y="-391" font-family="Times,serif" font-size="10.00">prov:type</text>
</a>
</g>
<g id="a_node6_11"><a xlink:href="http://openprovenance.org/ns/plead#HumanLedActivity" xlink:title="&lt;TABLE&gt;">
<text text-anchor="start" x="230" y="-391" font-family="Times,serif" font-size="10.00">pl:HumanLedActivity</text>
</a>
</g>
<g id="a_node6_12"><a xlink:href="http://www.w3.org/ns/prov#type" xlink:title="&lt;TABLE&gt;">
<text text-anchor="start" x="168" y="-378" font-family="Times,serif" font-size="10.00">prov:type</text>
</a>
</g>
<g id="a_node6_13"><a xlink:href="http://openprovenance.org/ns/school-admission#AllocatingAlternativeSchoolPlace" xlink:title="&lt;TABLE&gt;">
<text text-anchor="start" x="230" y="-378" font-family="Times,serif" font-size="10.00">sa:AllocatingAlternativeSchoolPlace</text>
</a>
</g>
<g id="a_node6_14"><a xlink:href="http://openprovenance.org/tmpl#endTime" xlink:title="&lt;TABLE&gt;">
<text text-anchor="start" x="168" y="-365" font-family="Times,serif" font-size="10.00">tmpl:endTime</text>
</a>
</g>
<g id="a_node6_15"><a xlink:href="http://openprovenance.org/var#endTime" xlink:title="&lt;TABLE&gt;">
<text text-anchor="start" x="230" y="-365" font-family="Times,serif" font-size="10.00">var:endTime</text>
</a>
</g>
<g id="a_node6_16"><a xlink:href="http://openprovenance.org/tmpl#startTime" xlink:title="&lt;TABLE&gt;">
<text text-anchor="start" x="168" y="-352" font-family="Times,serif" font-size="10.00">tmpl:startTime</text>
</a>
</g>
<g id="a_node6_17"><a xlink:href="http://openprovenance.org/var#startTime" xlink:title="&lt;TABLE&gt;">
<text text-anchor="start" x="230" y="-352" font-family="Times,serif" font-size="10.00">var:startTime</text>
</a>
</g>
</g>
<!-- ann3&#45;&gt;n3 -->
<g id="edge3" class="edge">
<title>ann3&#45;&gt;n3</title>
<path fill="none" stroke="gray" stroke-dasharray="5,2" d="M279,-405.15C282.45,-422.5 286.67,-443.67 289.56,-458.23"/>
</g>
<!-- n4 -->
<g id="node7" class="node">
<title>n4</title>
<g id="a_node7"><a xlink:href="http://openprovenance.org/var#offer" xlink:title="var:offer">
<ellipse fill="#fffc87" stroke="#808080" cx="254" cy="-195" rx="42.49" ry="18"/>
<text text-anchor="middle" x="254" y="-191.3" font-family="Times,serif" font-size="14.00">var:offer</text>
</a>
</g>
</g>
<!-- n4&#45;&gt;n1 -->
<g id="edge19" class="edge">
<title>n4&#45;&gt;n1</title>
<path fill="none" stroke="#fed37f" d="M238.39,-212C226.1,-224.61 208.86,-242.28 195.46,-256.02"/>
<polygon fill="#fed37f" stroke="#fed37f" points="192.95,-253.59 188.47,-263.19 197.96,-258.47 192.95,-253.59"/>
<text text-anchor="middle" x="253" y="-234" font-family="Times,serif" font-size="10.00">wasAttributedTo</text>
</g>
<!-- n4&#45;&gt;n3 -->
<g id="edge6" class="edge">
<title>n4&#45;&gt;n3</title>
<path fill="none" stroke="darkgreen" d="M272.47,-211.34C278.79,-217.11 285.61,-223.99 291,-231 319.96,-268.69 305.49,-294.56 342,-325 361.75,-341.47 381.9,-322.18 397,-343 413.17,-365.31 409.91,-380.65 397,-405 385.7,-426.32 364.74,-442.38 344.58,-453.74"/>
<polygon fill="darkgreen" stroke="darkgreen" points="342.89,-450.68 335.72,-458.48 346.19,-456.85 342.89,-450.68"/>
<text text-anchor="middle" x="376.5" y="-317" font-family="Times,serif" font-size="10.00" fill="darkgreen">wasGeneratedBy</text>
</g>
<!-- b4 -->
<g id="node15" class="node">
<title>b4</title>
<ellipse fill="gray" stroke="gray" cx="422" cy="-319.5" rx="1.8" ry="1.8"/>
</g>
<!-- n4&#45;&gt;b4 -->
<g id="edge14" class="edge">
<title>n4&#45;&gt;b4</title>
<path fill="none" stroke="black" d="M286.64,-206.57C302.31,-212.47 320.91,-220.71 336,-231 377.52,-259.33 415.58,-309.79 421.27,-317.5"/>
<text text-anchor="middle" x="384" y="-234" font-family="Times,serif" font-size="10.00">wasDerivedFrom</text>
</g>
<!-- b5 -->
<g id="node16" class="node">
<title>b5</title>
<ellipse fill="gray" stroke="gray" cx="23" cy="-428.5" rx="1.8" ry="1.8"/>
</g>
<!-- n4&#45;&gt;b5 -->
<g id="edge16" class="edge">
<title>n4&#45;&gt;b5</title>
<path fill="none" stroke="black" d="M220.24,-206.09C161.48,-223.68 46.46,-258.28 45,-260 -0.46,-313.74 19.98,-413.93 22.71,-426.25"/>
<text text-anchor="middle" x="80" y="-275.5" font-family="Times,serif" font-size="10.00">wasDerivedFrom</text>
</g>
<!-- ann4 -->
<g id="node8" class="node">
<title>ann4</title>
<polygon fill="none" stroke="gray" points="351.5,-140 150.5,-140 150.5,-39 357.5,-39 357.5,-134 351.5,-140"/>
<polyline fill="none" stroke="gray" points="351.5,-140 351.5,-134 "/>
<polyline fill="none" stroke="gray" points="357.5,-134 351.5,-134 "/>
<g id="a_node8_18"><a xlink:href="http://www.w3.org/ns/prov#type" xlink:title="&lt;TABLE&gt;">
<text text-anchor="start" x="161" y="-125.5" font-family="Times,serif" font-size="10.00">prov:type</text>
</a>
</g>
<g id="a_node8_19"><a xlink:href="http://openprovenance.org/ns/plead#Decision" xlink:title="&lt;TABLE&gt;">
<text text-anchor="start" x="221" y="-125.5" font-family="Times,serif" font-size="10.00">pl:Decision</text>
</a>
</g>
<g id="a_node8_20"><a xlink:href="http://www.w3.org/ns/prov#type" xlink:title="&lt;TABLE&gt;">
<text text-anchor="start" x="161" y="-112.5" font-family="Times,serif" font-size="10.00">prov:type</text>
</a>
</g>
<g id="a_node8_21"><a xlink:href="http://openprovenance.org/ns/plead#HumanDecision" xlink:title="&lt;TABLE&gt;">
<text text-anchor="start" x="221" y="-112.5" font-family="Times,serif" font-size="10.00">pl:HumanDecision</text>
</a>
</g>
<g id="a_node8_22"><a xlink:href="http://www.w3.org/ns/prov#type" xlink:title="&lt;TABLE&gt;">
<text text-anchor="start" x="161" y="-99.5" font-family="Times,serif" font-size="10.00">prov:type</text>
</a>
</g>
<g id="a_node8_23"><a xlink:href="http://openprovenance.org/ns/school-admission#AlternativeSchoolPlaceOffer" xlink:title="&lt;TABLE&gt;">
<text text-anchor="start" x="221" y="-99.5" font-family="Times,serif" font-size="10.00">sa:AlternativeSchoolPlaceOffer</text>
</a>
</g>
<g id="a_node8_24"><a xlink:href="http://openprovenance.org/ns/school-admission#child" xlink:title="&lt;TABLE&gt;">
<text text-anchor="start" x="161" y="-86.5" font-family="Times,serif" font-size="10.00">sa:child</text>
</a>
</g>
<g id="a_node8_25"><a xlink:href="http://openprovenance.org/var#child" xlink:title="&lt;TABLE&gt;">
<text text-anchor="start" x="221" y="-86.5" font-family="Times,serif" font-size="10.00">var:child</text>
</a>
</g>
<g id="a_node8_26"><a xlink:href="http://openprovenance.org/ns/school-admission#child_name" xlink:title="&lt;TABLE&gt;">
<text text-anchor="start" x="161" y="-73.5" font-family="Times,serif" font-size="10.00">sa:child_name</text>
</a>
</g>
<g id="a_node8_27"><a xlink:href="http://openprovenance.org/var#child_name" xlink:title="&lt;TABLE&gt;">
<text text-anchor="start" x="221" y="-73.5" font-family="Times,serif" font-size="10.00">var:child_name</text>
</a>
</g>
<g id="a_node8_28"><a xlink:href="http://openprovenance.org/ns/school-admission#school" xlink:title="&lt;TABLE&gt;">
<text text-anchor="start" x="161" y="-60.5" font-family="Times,serif" font-size="10.00">sa:school</text>
</a>
</g>
<g id="a_node8_29"><a xlink:href="http://openprovenance.org/var#school" xlink:title="&lt;TABLE&gt;">
<text text-anchor="start" x="221" y="-60.5" font-family="Times,serif" font-size="10.00">var:school</text>
</a>
</g>
<g id="a_node8_30"><a xlink:href="http://openprovenance.org/ns/school-admission#year" xlink:title="&lt;TABLE&gt;">
<text text-anchor="start" x="161" y="-47.5" font-family="Times,serif" font-size="10.00">sa:year</text>
</a>
</g>
<g id="a_node8_31"><a xlink:href="http://openprovenance.org/var#year" xlink:title="&lt;TABLE&gt;">
<text text-anchor="start" x="221" y="-47.5" font-family="Times,serif" font-size="10.00">var:year</text>
</a>
</g>
</g>
<!-- ann4&#45;&gt;n4 -->
<g id="edge4" class="edge">
<title>ann4&#45;&gt;n4</title>
<path fill="none" stroke="gray" stroke-dasharray="5,2" d="M254,-140.13C254,-153.2 254,-166.46 254,-176.55"/>
</g>
<!-- n5&#45;&gt;n2 -->
<g id="edge18" class="edge">
<title>n5&#45;&gt;n2</title>
<path fill="none" stroke="#fed37f" d="M125,-590.79C125,-603.96 125,-622.27 125,-636.89"/>
<polygon fill="#fed37f" stroke="#fed37f" points="121.5,-637.2 125,-647.2 128.5,-637.2 121.5,-637.2"/>
<text text-anchor="middle" x="159" y="-618" font-family="Times,serif" font-size="10.00">wasAttributedTo</text>
</g>
<!-- ann5 -->
<g id="node10" class="node">
<title>ann5</title>
<polygon fill="none" stroke="gray" points="191.5,-501 56.5,-501 56.5,-452 197.5,-452 197.5,-495 191.5,-501"/>
<polyline fill="none" stroke="gray" points="191.5,-501 191.5,-495 "/>
<polyline fill="none" stroke="gray" points="197.5,-495 191.5,-495 "/>
<g id="a_node10_32"><a xlink:href="http://www.w3.org/ns/prov#type" xlink:title="&lt;TABLE&gt;">
<text text-anchor="start" x="67" y="-486.5" font-family="Times,serif" font-size="10.00">prov:type</text>
</a>
</g>
<g id="a_node10_33"><a xlink:href="http://openprovenance.org/ns/school-admission#AdmissionPolicy" xlink:title="&lt;TABLE&gt;">
<text text-anchor="start" x="108" y="-486.5" font-family="Times,serif" font-size="10.00">sa:AdmissionPolicy</text>
</a>
</g>
<g id="a_node10_34"><a xlink:href="http://openprovenance.org/ns/school-admission#pan" xlink:title="&lt;TABLE&gt;">
<text text-anchor="start" x="67" y="-473.5" font-family="Times,serif" font-size="10.00">sa:pan</text>
</a>
</g>
<g id="a_node10_35"><a xlink:href="http://openprovenance.org/var#pan" xlink:title="&lt;TABLE&gt;">
<text text-anchor="start" x="108" y="-473.5" font-family="Times,serif" font-size="10.00">var:pan</text>
</a>
</g>
<g id="a_node10_36"><a xlink:href="http://openprovenance.org/ns/school-admission#year" xlink:title="&lt;TABLE&gt;">
<text text-anchor="start" x="67" y="-460.5" font-family="Times,serif" font-size="10.00">sa:year</text>
</a>
</g>
<g id="a_node10_37"><a xlink:href="http://openprovenance.org/var#year" xlink:title="&lt;TABLE&gt;">
<text text-anchor="start" x="108" y="-460.5" font-family="Times,serif" font-size="10.00">var:year</text>
</a>
</g>
</g>
<!-- ann5&#45;&gt;n5 -->
<g id="edge5" class="edge">
<title>ann5&#45;&gt;n5</title>
<path fill="none" stroke="gray" stroke-dasharray="5,2" d="M126.5,-501.22C126.14,-517.75 125.68,-539.43 125.37,-554.31"/>
</g>
<!-- b1&#45;&gt;n2 -->
<g id="edge8" class="edge">
<title>b1&#45;&gt;n2</title>
<path fill="none" stroke="#fed37f" d="M61.48,-375.87C54.55,-387.48 -18.32,-513.28 27,-597 38.11,-617.52 58.96,-632.51 78.59,-642.8"/>
<polygon fill="#fed37f" stroke="#fed37f" points="77.26,-646.04 87.78,-647.33 80.36,-639.77 77.26,-646.04"/>
</g>
<!-- b1&#45;&gt;n3 -->
<g id="edge9" class="edge">
<title>b1&#45;&gt;n3</title>
<path fill="none" stroke="gray" d="M63.48,-375.64C77.05,-381.55 181.22,-426.87 244.46,-454.38"/>
<polygon fill="gray" stroke="gray" points="243.29,-457.69 253.86,-458.47 246.09,-451.27 243.29,-457.69"/>
<text text-anchor="middle" x="206" y="-426" font-family="Times,serif" font-size="10.00" fill="dimgray">activity</text>
</g>
<!-- n6 -->
<g id="node13" class="node">
<title>n6</title>
<g id="a_node13"><a xlink:href="http://openprovenance.org/var#waiting_list_place" xlink:title="var:waiting_list_place">
<ellipse fill="lightgray" stroke="dimgray" cx="336" cy="-662" rx="91.78" ry="18"/>
<text text-anchor="middle" x="336" y="-658.3" font-family="Times,serif" font-size="14.00">var:waiting_list_place</text>
</a>
</g>
</g>
<!-- b2&#45;&gt;n6 -->
<g id="edge11" class="edge">
<title>b2&#45;&gt;n6</title>
<path fill="none" stroke="black" d="M405.68,-574.45C404.53,-577.75 400.42,-588.92 395,-597 385.33,-611.41 372.46,-625.77 361.21,-637.23"/>
<polygon fill="black" stroke="black" points="358.71,-634.77 354.1,-644.31 363.65,-639.73 358.71,-634.77"/>
</g>
<!-- b3&#45;&gt;n1 -->
<g id="edge13" class="edge">
<title>b3&#45;&gt;n1</title>
<path fill="none" stroke="#fed37f" d="M383.86,-570.37C383.31,-566.49 380.93,-553.64 373,-548 341.69,-525.71 226.72,-558.55 201,-530 192.19,-520.22 204.89,-513.99 207,-501 210.49,-479.5 216.12,-471.77 207,-452 198.68,-433.97 188.51,-435.41 173,-423 162.59,-414.67 154.96,-416.93 149,-405 136.68,-380.35 143.72,-370.04 149,-343 151.66,-329.39 157.22,-315.02 162.52,-303.35"/>
<polygon fill="#fed37f" stroke="#fed37f" points="165.71,-304.79 166.84,-294.26 159.39,-301.79 165.71,-304.79"/>
</g>
<!-- b4&#45;&gt;n6 -->
<g id="edge15" class="edge">
<title>b4&#45;&gt;n6</title>
<path fill="none" stroke="black" d="M422.09,-321.55C422.75,-329.71 427,-383.61 427,-427.5 427,-427.5 427,-427.5 427,-573.5 427,-602.68 402.38,-625.18 378.76,-640.05"/>
<polygon fill="black" stroke="black" points="376.94,-637.06 370.14,-645.18 380.53,-643.07 376.94,-637.06"/>
</g>
<!-- b5&#45;&gt;n5 -->
<g id="edge17" class="edge">
<title>b5&#45;&gt;n5</title>
<path fill="none" stroke="black" d="M23.18,-430.6C24.32,-437.5 31.21,-475.53 48,-501 60.15,-519.43 78.16,-536.28 93.71,-548.88"/>
<polygon fill="black" stroke="black" points="91.55,-551.63 101.58,-555.07 95.88,-546.13 91.55,-551.63"/>
</g>
</g>
</svg>
