<?xml version="1.0" encoding="UTF-8" standalone="no"?>
<!DOCTYPE svg PUBLIC "-//W3C//DTD SVG 1.1//EN"
 "http://www.w3.org/Graphics/SVG/1.1/DTD/svg11.dtd">
<!-- Generated by graphviz version 2.47.3 (20210619.1520)
 -->
<!-- Title: G Pages: 1 -->
<svg width="564pt" height="522pt"
 viewBox="0.00 0.00 563.57 522.00" xmlns="http://www.w3.org/2000/svg" xmlns:xlink="http://www.w3.org/1999/xlink">
<g id="graph0" class="graph" transform="scale(1 1) rotate(0) translate(4 518)">
<title>G</title>
<polygon fill="white" stroke="transparent" points="-4,4 -4,-518 559.57,-518 559.57,4 -4,4"/>
<g id="clust1" class="cluster">
<title>cluster_c1</title>
<g id="a_clust1"><a xlink:href="http://openprovenance.org/vargen#b" xlink:title="vargen:b">
<polygon fill="none" stroke="black" points="8,-8 8,-506 538,-506 538,-8 8,-8"/>
<text text-anchor="middle" x="273" y="-15.8" font-family="Times,serif" font-size="14.00">vargen:b</text>
</a>
</g>
</g>
<!-- n1 -->
<g id="node1" class="node">
<title>n1</title>
<g id="a_node1"><a xlink:href="http://openprovenance.org/var#machine" xlink:title="var:machine">
<polygon fill="#fed37f" stroke="black" points="526.18,-82.06 457,-94.5 387.82,-82.06 387.88,-61.94 526.12,-61.94 526.18,-82.06"/>
<text text-anchor="middle" x="457" y="-72.8" font-family="Times,serif" font-size="14.00">var:machine</text>
</a>
</g>
</g>
<!-- b1 -->
<g id="node10" class="node">
<title>b1</title>
<ellipse fill="gray" stroke="gray" cx="462" cy="-192" rx="1.8" ry="1.8"/>
</g>
<!-- n1&#45;&gt;b1 -->
<g id="edge6" class="edge">
<title>n1&#45;&gt;b1</title>
<path fill="none" stroke="#fed37f" d="M454.57,-94.21C452.98,-107.46 451.46,-126.44 453,-143 454.76,-161.91 460.33,-184.48 461.7,-189.82"/>
<text text-anchor="middle" x="488.5" y="-135" font-family="Times,serif" font-size="10.00">actedOnBehalfOf</text>
</g>
<!-- n2 -->
<g id="node2" class="node">
<title>n2</title>
<g id="a_node2"><a xlink:href="http://openprovenance.org/var#school" xlink:title="var:school">
<polygon fill="#fed37f" stroke="black" points="504.01,-485.56 444,-498 383.99,-485.56 384.05,-465.44 503.95,-465.44 504.01,-485.56"/>
<text text-anchor="middle" x="444" y="-476.3" font-family="Times,serif" font-size="14.00">var:school</text>
</a>
</g>
</g>
<!-- ann1 -->
<g id="node3" class="node">
<title>ann1</title>
<polygon fill="none" stroke="gray" points="504,-415 378,-415 378,-366 510,-366 510,-409 504,-415"/>
<polyline fill="none" stroke="gray" points="504,-415 504,-409 "/>
<polyline fill="none" stroke="gray" points="510,-409 504,-409 "/>
<g id="a_node3_0"><a xlink:href="http://www.w3.org/ns/prov#type" xlink:title="&lt;TABLE&gt;">
<text text-anchor="start" x="388" y="-400.5" font-family="Times,serif" font-size="10.00">prov:type</text>
</a>
</g>
<g id="a_node3_1"><a xlink:href="http://openprovenance.org/ns/school-admission#School" xlink:title="&lt;TABLE&gt;">
<text text-anchor="start" x="431" y="-400.5" font-family="Times,serif" font-size="10.00">sa:School</text>
</a>
</g>
<g id="a_node3_2"><a xlink:href="http://www.w3.org/ns/prov#type" xlink:title="&lt;TABLE&gt;">
<text text-anchor="start" x="388" y="-387.5" font-family="Times,serif" font-size="10.00">prov:type</text>
</a>
</g>
<g id="a_node3_3"><a xlink:href="http://openprovenance.org/var#school_type" xlink:title="&lt;TABLE&gt;">
<text text-anchor="start" x="431" y="-387.5" font-family="Times,serif" font-size="10.00">var:school_type</text>
</a>
</g>
<g id="a_node3_4"><a xlink:href="http://openprovenance.org/tmpl#label" xlink:title="&lt;TABLE&gt;">
<text text-anchor="start" x="388" y="-374.5" font-family="Times,serif" font-size="10.00">tmpl:label</text>
</a>
</g>
<g id="a_node3_5"><a xlink:href="http://openprovenance.org/var#school_name" xlink:title="&lt;TABLE&gt;">
<text text-anchor="start" x="431" y="-374.5" font-family="Times,serif" font-size="10.00">var:school_name</text>
</a>
</g>
</g>
<!-- ann1&#45;&gt;n2 -->
<g id="edge1" class="edge">
<title>ann1&#45;&gt;n2</title>
<path fill="none" stroke="gray" stroke-dasharray="5,2" d="M444,-415.41C444,-431.4 444,-451.87 444,-465.21"/>
</g>
<!-- n3 -->
<g id="node4" class="node">
<title>n3</title>
<g id="a_node4"><a xlink:href="http://openprovenance.org/vargen#categorising" xlink:title="vargen:categorising">
<polygon fill="#9fb1fc" stroke="#0000ff" points="401.5,-312.5 274.5,-312.5 274.5,-276.5 401.5,-276.5 401.5,-312.5"/>
<text text-anchor="middle" x="338" y="-290.8" font-family="Times,serif" font-size="14.00">vargen:categorising</text>
</a>
</g>
</g>
<!-- n5 -->
<g id="node8" class="node">
<title>n5</title>
<g id="a_node8"><a xlink:href="http://openprovenance.org/var#admission_policy" xlink:title="var:admission_policy">
<ellipse fill="#fffc87" stroke="#808080" cx="105" cy="-390.5" rx="89.08" ry="18"/>
<text text-anchor="middle" x="105" y="-386.8" font-family="Times,serif" font-size="14.00">var:admission_policy</text>
</a>
</g>
</g>
<!-- n3&#45;&gt;n5 -->
<g id="edge15" class="edge">
<title>n3&#45;&gt;n5</title>
<path fill="none" stroke="#8b0000" d="M295.81,-312.52C255.41,-328.82 194.57,-353.37 152.49,-370.34"/>
<polygon fill="#8b0000" stroke="#8b0000" points="150.99,-367.17 143.02,-374.16 153.61,-373.66 150.99,-367.17"/>
<text text-anchor="middle" x="237.5" y="-340" font-family="Times,serif" font-size="10.00" fill="red">used</text>
</g>
<!-- b2 -->
<g id="node11" class="node">
<title>b2</title>
<ellipse fill="gray" stroke="gray" cx="358" cy="-390.5" rx="1.8" ry="1.8"/>
</g>
<!-- n3&#45;&gt;b2 -->
<g id="edge9" class="edge">
<title>n3&#45;&gt;b2</title>
<path fill="none" stroke="#fed37f" d="M341.67,-312.74C346.99,-337.76 356.38,-381.88 357.81,-388.63"/>
<text text-anchor="middle" x="388" y="-340" font-family="Times,serif" font-size="10.00">wasAssociatedWith</text>
</g>
<!-- n6 -->
<g id="node13" class="node">
<title>n6</title>
<g id="a_node13"><a xlink:href="http://openprovenance.org/var#preference" xlink:title="var:preference">
<ellipse fill="lightgray" stroke="dimgray" cx="275" cy="-390.5" rx="63.09" ry="18"/>
<text text-anchor="middle" x="275" y="-386.8" font-family="Times,serif" font-size="14.00">var:preference</text>
</a>
</g>
</g>
<!-- n3&#45;&gt;n6 -->
<g id="edge14" class="edge">
<title>n3&#45;&gt;n6</title>
<path fill="none" stroke="#8b0000" d="M326.44,-312.74C316.79,-327.14 302.9,-347.87 291.98,-364.16"/>
<polygon fill="#8b0000" stroke="#8b0000" points="288.93,-362.43 286.27,-372.68 294.74,-366.33 288.93,-362.43"/>
<text text-anchor="middle" x="317.5" y="-340" font-family="Times,serif" font-size="10.00" fill="red">used</text>
</g>
<!-- ann2 -->
<g id="node5" class="node">
<title>ann2</title>
<polygon fill="none" stroke="gray" points="436.5,-223 251.5,-223 251.5,-161 442.5,-161 442.5,-217 436.5,-223"/>
<polyline fill="none" stroke="gray" points="436.5,-223 436.5,-217 "/>
<polyline fill="none" stroke="gray" points="442.5,-217 436.5,-217 "/>
<g id="a_node5_6"><a xlink:href="http://www.w3.org/ns/prov#type" xlink:title="&lt;TABLE&gt;">
<text text-anchor="start" x="262" y="-209" font-family="Times,serif" font-size="10.00">prov:type</text>
</a>
</g>
<g id="a_node5_7"><a xlink:href="http://openprovenance.org/ns/plead#MachineLedActivity" xlink:title="&lt;TABLE&gt;">
<text text-anchor="start" x="324" y="-209" font-family="Times,serif" font-size="10.00">pl:MachineLedActivity</text>
</a>
</g>
<g id="a_node5_8"><a xlink:href="http://www.w3.org/ns/prov#type" xlink:title="&lt;TABLE&gt;">
<text text-anchor="start" x="262" y="-196" font-family="Times,serif" font-size="10.00">prov:type</text>
</a>
</g>
<g id="a_node5_9"><a xlink:href="http://openprovenance.org/ns/school-admission#CatergorisingPreference" xlink:title="&lt;TABLE&gt;">
<text text-anchor="start" x="324" y="-196" font-family="Times,serif" font-size="10.00">sa:CatergorisingPreference</text>
</a>
</g>
<g id="a_node5_10"><a xlink:href="http://openprovenance.org/tmpl#endTime" xlink:title="&lt;TABLE&gt;">
<text text-anchor="start" x="262" y="-183" font-family="Times,serif" font-size="10.00">tmpl:endTime</text>
</a>
</g>
<g id="a_node5_11"><a xlink:href="http://openprovenance.org/var#endTime" xlink:title="&lt;TABLE&gt;">
<text text-anchor="start" x="324" y="-183" font-family="Times,serif" font-size="10.00">var:endTime</text>
</a>
</g>
<g id="a_node5_12"><a xlink:href="http://openprovenance.org/tmpl#startTime" xlink:title="&lt;TABLE&gt;">
<text text-anchor="start" x="262" y="-170" font-family="Times,serif" font-size="10.00">tmpl:startTime</text>
</a>
</g>
<g id="a_node5_13"><a xlink:href="http://openprovenance.org/var#startTime" xlink:title="&lt;TABLE&gt;">
<text text-anchor="start" x="324" y="-170" font-family="Times,serif" font-size="10.00">var:startTime</text>
</a>
</g>
</g>
<!-- ann2&#45;&gt;n3 -->
<g id="edge2" class="edge">
<title>ann2&#45;&gt;n3</title>
<path fill="none" stroke="gray" stroke-dasharray="5,2" d="M344.3,-223.15C342.75,-240.5 340.85,-261.67 339.55,-276.23"/>
</g>
<!-- n4 -->
<g id="node6" class="node">
<title>n4</title>
<g id="a_node6"><a xlink:href="http://openprovenance.org/var#category_list" xlink:title="var:category_list">
<ellipse fill="#fffc87" stroke="#808080" cx="161" cy="-192" rx="72.29" ry="18"/>
<text text-anchor="middle" x="161" y="-188.3" font-family="Times,serif" font-size="14.00">var:category_list</text>
</a>
</g>
</g>
<!-- n4&#45;&gt;n3 -->
<g id="edge5" class="edge">
<title>n4&#45;&gt;n3</title>
<path fill="none" stroke="darkgreen" d="M188.66,-208.7C218.25,-225.51 265.44,-252.3 298.84,-271.27"/>
<polygon fill="darkgreen" stroke="darkgreen" points="297.45,-274.5 307.87,-276.39 300.91,-268.41 297.45,-274.5"/>
<text text-anchor="middle" x="294.5" y="-244" font-family="Times,serif" font-size="10.00" fill="darkgreen">wasGeneratedBy</text>
</g>
<!-- b3 -->
<g id="node12" class="node">
<title>b3</title>
<ellipse fill="gray" stroke="gray" cx="177" cy="-294.5" rx="1.8" ry="1.8"/>
</g>
<!-- n4&#45;&gt;b3 -->
<g id="edge11" class="edge">
<title>n4&#45;&gt;b3</title>
<path fill="none" stroke="black" d="M162.13,-210.12C163.05,-221.94 164.61,-237.99 167,-252 169.79,-268.36 175.35,-287.86 176.7,-292.48"/>
<text text-anchor="middle" x="202" y="-244" font-family="Times,serif" font-size="10.00">wasDerivedFrom</text>
</g>
<!-- ann3 -->
<g id="node7" class="node">
<title>ann3</title>
<polygon fill="none" stroke="gray" points="257.5,-114 58.5,-114 58.5,-39 263.5,-39 263.5,-108 257.5,-114"/>
<polyline fill="none" stroke="gray" points="257.5,-114 257.5,-108 "/>
<polyline fill="none" stroke="gray" points="263.5,-108 257.5,-108 "/>
<g id="a_node7_14"><a xlink:href="http://www.w3.org/ns/prov#type" xlink:title="&lt;TABLE&gt;">
<text text-anchor="start" x="69" y="-99.5" font-family="Times,serif" font-size="10.00">prov:type</text>
</a>
</g>
<g id="a_node7_15"><a xlink:href="http://openprovenance.org/ns/school-admission#ApplicationCategoryList" xlink:title="&lt;TABLE&gt;">
<text text-anchor="start" x="143" y="-99.5" font-family="Times,serif" font-size="10.00">sa:ApplicationCategoryList</text>
</a>
</g>
<g id="a_node7_16"><a xlink:href="http://openprovenance.org/ns/school-admission#category" xlink:title="&lt;TABLE&gt;">
<text text-anchor="start" x="69" y="-86.5" font-family="Times,serif" font-size="10.00">sa:category</text>
</a>
</g>
<g id="a_node7_17"><a xlink:href="http://openprovenance.org/var#category" xlink:title="&lt;TABLE&gt;">
<text text-anchor="start" x="143" y="-86.5" font-family="Times,serif" font-size="10.00">var:category</text>
</a>
</g>
<g id="a_node7_18"><a xlink:href="http://openprovenance.org/ns/school-admission#category_order" xlink:title="&lt;TABLE&gt;">
<text text-anchor="start" x="69" y="-73.5" font-family="Times,serif" font-size="10.00">sa:category_order</text>
</a>
</g>
<g id="a_node7_19"><a xlink:href="http://openprovenance.org/var#category_order" xlink:title="&lt;TABLE&gt;">
<text text-anchor="start" x="143" y="-73.5" font-family="Times,serif" font-size="10.00">var:category_order</text>
</a>
</g>
<g id="a_node7_20"><a xlink:href="http://openprovenance.org/ns/school-admission#count" xlink:title="&lt;TABLE&gt;">
<text text-anchor="start" x="69" y="-60.5" font-family="Times,serif" font-size="10.00">sa:count</text>
</a>
</g>
<g id="a_node7_21"><a xlink:href="http://openprovenance.org/var#count" xlink:title="&lt;TABLE&gt;">
<text text-anchor="start" x="143" y="-60.5" font-family="Times,serif" font-size="10.00">var:count</text>
</a>
</g>
<g id="a_node7_22"><a xlink:href="http://openprovenance.org/tmpl#label" xlink:title="&lt;TABLE&gt;">
<text text-anchor="start" x="69" y="-47.5" font-family="Times,serif" font-size="10.00">tmpl:label</text>
</a>
</g>
<g id="a_node7_23"><a xlink:href="http://openprovenance.org/var#category_text" xlink:title="&lt;TABLE&gt;">
<text text-anchor="start" x="143" y="-47.5" font-family="Times,serif" font-size="10.00">var:category_text</text>
</a>
</g>
</g>
<!-- ann3&#45;&gt;n4 -->
<g id="edge3" class="edge">
<title>ann3&#45;&gt;n4</title>
<path fill="none" stroke="gray" stroke-dasharray="5,2" d="M161,-114.04C161,-134.13 161,-158.1 161,-173.89"/>
</g>
<!-- n5&#45;&gt;n2 -->
<g id="edge13" class="edge">
<title>n5&#45;&gt;n2</title>
<path fill="none" stroke="#fed37f" d="M157.6,-405.08C217.97,-420.66 316.92,-446.2 381.26,-462.81"/>
<polygon fill="#fed37f" stroke="#fed37f" points="380.72,-466.28 391.28,-465.39 382.47,-459.5 380.72,-466.28"/>
<text text-anchor="middle" x="338" y="-436" font-family="Times,serif" font-size="10.00">wasAttributedTo</text>
</g>
<!-- ann4 -->
<g id="node9" class="node">
<title>ann4</title>
<polygon fill="none" stroke="gray" points="151.5,-319 16.5,-319 16.5,-270 157.5,-270 157.5,-313 151.5,-319"/>
<polyline fill="none" stroke="gray" points="151.5,-319 151.5,-313 "/>
<polyline fill="none" stroke="gray" points="157.5,-313 151.5,-313 "/>
<g id="a_node9_24"><a xlink:href="http://www.w3.org/ns/prov#type" xlink:title="&lt;TABLE&gt;">
<text text-anchor="start" x="27" y="-304.5" font-family="Times,serif" font-size="10.00">prov:type</text>
</a>
</g>
<g id="a_node9_25"><a xlink:href="http://openprovenance.org/ns/school-admission#AdmissionPolicy" xlink:title="&lt;TABLE&gt;">
<text text-anchor="start" x="68" y="-304.5" font-family="Times,serif" font-size="10.00">sa:AdmissionPolicy</text>
</a>
</g>
<g id="a_node9_26"><a xlink:href="http://openprovenance.org/ns/school-admission#pan" xlink:title="&lt;TABLE&gt;">
<text text-anchor="start" x="27" y="-291.5" font-family="Times,serif" font-size="10.00">sa:pan</text>
</a>
</g>
<g id="a_node9_27"><a xlink:href="http://openprovenance.org/var#pan" xlink:title="&lt;TABLE&gt;">
<text text-anchor="start" x="68" y="-291.5" font-family="Times,serif" font-size="10.00">var:pan</text>
</a>
</g>
<g id="a_node9_28"><a xlink:href="http://openprovenance.org/ns/school-admission#year" xlink:title="&lt;TABLE&gt;">
<text text-anchor="start" x="27" y="-278.5" font-family="Times,serif" font-size="10.00">sa:year</text>
</a>
</g>
<g id="a_node9_29"><a xlink:href="http://openprovenance.org/var#year" xlink:title="&lt;TABLE&gt;">
<text text-anchor="start" x="68" y="-278.5" font-family="Times,serif" font-size="10.00">var:year</text>
</a>
</g>
</g>
<!-- ann4&#45;&gt;n5 -->
<g id="edge4" class="edge">
<title>ann4&#45;&gt;n5</title>
<path fill="none" stroke="gray" stroke-dasharray="5,2" d="M91.54,-319.22C94.71,-335.75 98.86,-357.43 101.71,-372.31"/>
</g>
<!-- b1&#45;&gt;n2 -->
<g id="edge7" class="edge">
<title>b1&#45;&gt;n2</title>
<path fill="none" stroke="#fed37f" d="M462.63,-193.84C471.03,-205.06 559.67,-326.84 519,-415 510.41,-433.62 493.43,-448.83 477.8,-459.74"/>
<polygon fill="#fed37f" stroke="#fed37f" points="475.72,-456.92 469.32,-465.36 479.59,-462.76 475.72,-456.92"/>
</g>
<!-- b1&#45;&gt;n3 -->
<g id="edge8" class="edge">
<title>b1&#45;&gt;n3</title>
<path fill="none" stroke="gray" d="M461.93,-193.84C461.56,-197.62 459.63,-213.36 452,-223 435.44,-243.93 410.83,-260.26 388.72,-271.91"/>
<polygon fill="gray" stroke="gray" points="387.08,-268.81 379.75,-276.45 390.25,-275.05 387.08,-268.81"/>
<text text-anchor="middle" x="449" y="-244" font-family="Times,serif" font-size="10.00" fill="dimgray">activity</text>
</g>
<!-- b2&#45;&gt;n1 -->
<g id="edge10" class="edge">
<title>b2&#45;&gt;n1</title>
<path fill="none" stroke="#fed37f" d="M358.18,-388.42C358.85,-384.7 361.59,-372.31 369,-366 391.17,-347.11 408.24,-364.83 432,-348 474.66,-317.77 478.85,-299.82 500,-252 599.14,-27.91 537.03,-159.39 524,-132 516.87,-117 503.37,-104.78 490.35,-95.74"/>
<polygon fill="#fed37f" stroke="#fed37f" points="492.22,-92.79 481.93,-90.27 488.4,-98.65 492.22,-92.79"/>
</g>
<!-- b3&#45;&gt;n5 -->
<g id="edge12" class="edge">
<title>b3&#45;&gt;n5</title>
<path fill="none" stroke="black" d="M176.72,-296.45C175.71,-299.74 172.1,-310.89 167,-319 156.4,-335.83 141.82,-352.64 129.46,-365.62"/>
<polygon fill="black" stroke="black" points="126.95,-363.18 122.48,-372.79 131.96,-368.06 126.95,-363.18"/>
</g>
</g>
</svg>
