<?xml version="1.0" encoding="UTF-8" standalone="no"?>
<!DOCTYPE svg PUBLIC "-//W3C//DTD SVG 1.1//EN"
 "http://www.w3.org/Graphics/SVG/1.1/DTD/svg11.dtd">
<!-- Generated by graphviz version 2.47.3 (20210619.1520)
 -->
<!-- Title: G Pages: 1 -->
<svg width="587pt" height="393pt"
 viewBox="0.00 0.00 587.00 393.00" xmlns="http://www.w3.org/2000/svg" xmlns:xlink="http://www.w3.org/1999/xlink">
<g id="graph0" class="graph" transform="scale(1 1) rotate(0) translate(4 389)">
<title>G</title>
<polygon fill="white" stroke="transparent" points="-4,4 -4,-389 583,-389 583,4 -4,4"/>
<g id="clust1" class="cluster">
<title>cluster_c1</title>
<g id="a_clust1"><a xlink:href="http://openprovenance.org/vargen#b" xlink:title="vargen:b">
<polygon fill="none" stroke="black" points="8,-8 8,-377 571,-377 571,-8 8,-8"/>
<text text-anchor="middle" x="289.5" y="-15.8" font-family="Times,serif" font-size="14.00">vargen:b</text>
</a>
</g>
</g>
<!-- n1 -->
<g id="node1" class="node">
<title>n1</title>
<g id="a_node1"><a xlink:href="http://openprovenance.org/var#offer" xlink:title="var:offer">
<ellipse fill="#fffc87" stroke="#808080" cx="350" cy="-195" rx="42.49" ry="18"/>
<text text-anchor="middle" x="350" y="-191.3" font-family="Times,serif" font-size="14.00">var:offer</text>
</a>
</g>
</g>
<!-- b1 -->
<g id="node5" class="node">
<title>b1</title>
<ellipse fill="gray" stroke="gray" cx="144" cy="-278" rx="1.8" ry="1.8"/>
</g>
<!-- n1&#45;&gt;b1 -->
<g id="edge2" class="edge">
<title>n1&#45;&gt;b1</title>
<path fill="none" stroke="black" d="M313.47,-204.06C288.61,-210.12 255.22,-219.35 227,-231 191.67,-245.59 152.21,-271.51 145.12,-276.25"/>
<text text-anchor="middle" x="262" y="-234" font-family="Times,serif" font-size="10.00">wasDerivedFrom</text>
</g>
<!-- b2 -->
<g id="node6" class="node">
<title>b2</title>
<ellipse fill="gray" stroke="gray" cx="304" cy="-278" rx="1.8" ry="1.8"/>
</g>
<!-- n1&#45;&gt;b2 -->
<g id="edge4" class="edge">
<title>n1&#45;&gt;b2</title>
<path fill="none" stroke="black" d="M324.71,-209.64C316.97,-215.17 309.36,-222.33 305,-231 296.96,-246.99 302.23,-270.22 303.67,-275.77"/>
<text text-anchor="middle" x="340" y="-234" font-family="Times,serif" font-size="10.00">wasDerivedFrom</text>
</g>
<!-- b3 -->
<g id="node8" class="node">
<title>b3</title>
<ellipse fill="gray" stroke="gray" cx="403" cy="-278" rx="1.8" ry="1.8"/>
</g>
<!-- n1&#45;&gt;b3 -->
<g id="edge6" class="edge">
<title>n1&#45;&gt;b3</title>
<path fill="none" stroke="black" d="M362.21,-212.56C366.36,-218.33 370.97,-224.89 375,-231 386.54,-248.48 399.32,-270.59 402.34,-275.84"/>
<text text-anchor="middle" x="416" y="-234" font-family="Times,serif" font-size="10.00">wasDerivedFrom</text>
</g>
<!-- n5 -->
<g id="node9" class="node">
<title>n5</title>
<g id="a_node9"><a xlink:href="http://openprovenance.org/var#school" xlink:title="var:school">
<polygon fill="lightgray" stroke="dimgray" points="550.01,-283.56 490,-296 429.99,-283.56 430.05,-263.44 549.95,-263.44 550.01,-283.56"/>
<text text-anchor="middle" x="490" y="-274.3" font-family="Times,serif" font-size="14.00">var:school</text>
</a>
</g>
</g>
<!-- n1&#45;&gt;n5 -->
<g id="edge8" class="edge">
<title>n1&#45;&gt;n5</title>
<path fill="none" stroke="#fed37f" d="M388,-202.89C409.16,-208.07 435.15,-216.8 455,-231 463.72,-237.24 471.26,-246.29 477.09,-254.71"/>
<polygon fill="#fed37f" stroke="#fed37f" points="474.15,-256.61 482.51,-263.12 480.03,-252.82 474.15,-256.61"/>
<text text-anchor="middle" x="500" y="-234" font-family="Times,serif" font-size="10.00">wasAttributedTo</text>
</g>
<!-- ann1 -->
<g id="node2" class="node">
<title>ann1</title>
<polygon fill="none" stroke="gray" points="429.5,-140 264.5,-140 264.5,-39 435.5,-39 435.5,-134 429.5,-140"/>
<polyline fill="none" stroke="gray" points="429.5,-140 429.5,-134 "/>
<polyline fill="none" stroke="gray" points="435.5,-134 429.5,-134 "/>
<g id="a_node2_0"><a xlink:href="http://www.w3.org/ns/prov#type" xlink:title="&lt;TABLE&gt;">
<text text-anchor="start" x="275" y="-125.5" font-family="Times,serif" font-size="10.00">prov:type</text>
</a>
</g>
<g id="a_node2_1"><a xlink:href="http://openprovenance.org/ns/plead#AutomatedDecision" xlink:title="&lt;TABLE&gt;">
<text text-anchor="start" x="335" y="-125.5" font-family="Times,serif" font-size="10.00">pl:AutomatedDecision</text>
</a>
</g>
<g id="a_node2_2"><a xlink:href="http://www.w3.org/ns/prov#type" xlink:title="&lt;TABLE&gt;">
<text text-anchor="start" x="275" y="-112.5" font-family="Times,serif" font-size="10.00">prov:type</text>
</a>
</g>
<g id="a_node2_3"><a xlink:href="http://openprovenance.org/ns/plead#Decision" xlink:title="&lt;TABLE&gt;">
<text text-anchor="start" x="335" y="-112.5" font-family="Times,serif" font-size="10.00">pl:Decision</text>
</a>
</g>
<g id="a_node2_4"><a xlink:href="http://www.w3.org/ns/prov#type" xlink:title="&lt;TABLE&gt;">
<text text-anchor="start" x="275" y="-99.5" font-family="Times,serif" font-size="10.00">prov:type</text>
</a>
</g>
<g id="a_node2_5"><a xlink:href="http://openprovenance.org/ns/school-admission#SchoolPlaceOffer" xlink:title="&lt;TABLE&gt;">
<text text-anchor="start" x="335" y="-99.5" font-family="Times,serif" font-size="10.00">sa:SchoolPlaceOffer</text>
</a>
</g>
<g id="a_node2_6"><a xlink:href="http://openprovenance.org/ns/school-admission#child" xlink:title="&lt;TABLE&gt;">
<text text-anchor="start" x="275" y="-86.5" font-family="Times,serif" font-size="10.00">sa:child</text>
</a>
</g>
<g id="a_node2_7"><a xlink:href="http://openprovenance.org/var#child" xlink:title="&lt;TABLE&gt;">
<text text-anchor="start" x="335" y="-86.5" font-family="Times,serif" font-size="10.00">var:child</text>
</a>
</g>
<g id="a_node2_8"><a xlink:href="http://openprovenance.org/ns/school-admission#child_name" xlink:title="&lt;TABLE&gt;">
<text text-anchor="start" x="275" y="-73.5" font-family="Times,serif" font-size="10.00">sa:child_name</text>
</a>
</g>
<g id="a_node2_9"><a xlink:href="http://openprovenance.org/var#child_name" xlink:title="&lt;TABLE&gt;">
<text text-anchor="start" x="335" y="-73.5" font-family="Times,serif" font-size="10.00">var:child_name</text>
</a>
</g>
<g id="a_node2_10"><a xlink:href="http://openprovenance.org/ns/school-admission#school" xlink:title="&lt;TABLE&gt;">
<text text-anchor="start" x="275" y="-60.5" font-family="Times,serif" font-size="10.00">sa:school</text>
</a>
</g>
<g id="a_node2_11"><a xlink:href="http://openprovenance.org/var#school" xlink:title="&lt;TABLE&gt;">
<text text-anchor="start" x="335" y="-60.5" font-family="Times,serif" font-size="10.00">var:school</text>
</a>
</g>
<g id="a_node2_12"><a xlink:href="http://openprovenance.org/ns/school-admission#year" xlink:title="&lt;TABLE&gt;">
<text text-anchor="start" x="275" y="-47.5" font-family="Times,serif" font-size="10.00">sa:year</text>
</a>
</g>
<g id="a_node2_13"><a xlink:href="http://openprovenance.org/var#year" xlink:title="&lt;TABLE&gt;">
<text text-anchor="start" x="335" y="-47.5" font-family="Times,serif" font-size="10.00">var:year</text>
</a>
</g>
</g>
<!-- ann1&#45;&gt;n1 -->
<g id="edge1" class="edge">
<title>ann1&#45;&gt;n1</title>
<path fill="none" stroke="gray" stroke-dasharray="5,2" d="M350,-140.13C350,-153.2 350,-166.46 350,-176.55"/>
</g>
<!-- n2 -->
<g id="node3" class="node">
<title>n2</title>
<g id="a_node3"><a xlink:href="http://openprovenance.org/var#rank_position" xlink:title="var:rank_position">
<ellipse fill="#fffc87" stroke="#808080" cx="488" cy="-351" rx="74.99" ry="18"/>
<text text-anchor="middle" x="488" y="-347.3" font-family="Times,serif" font-size="14.00">var:rank_position</text>
</a>
</g>
</g>
<!-- n3 -->
<g id="node4" class="node">
<title>n3</title>
<g id="a_node4"><a xlink:href="http://openprovenance.org/var#admission_policy" xlink:title="var:admission_policy">
<ellipse fill="#fffc87" stroke="#808080" cx="105" cy="-351" rx="89.08" ry="18"/>
<text text-anchor="middle" x="105" y="-347.3" font-family="Times,serif" font-size="14.00">var:admission_policy</text>
</a>
</g>
</g>
<!-- b1&#45;&gt;n3 -->
<g id="edge3" class="edge">
<title>b1&#45;&gt;n3</title>
<path fill="none" stroke="black" d="M143.56,-279.8C141.15,-284.18 129.27,-305.82 119.32,-323.93"/>
<polygon fill="black" stroke="black" points="116.1,-322.52 114.35,-332.97 122.24,-325.89 116.1,-322.52"/>
</g>
<!-- n4 -->
<g id="node7" class="node">
<title>n4</title>
<g id="a_node7"><a xlink:href="http://openprovenance.org/var#waiting_list_place" xlink:title="var:waiting_list_place">
<ellipse fill="lightgray" stroke="dimgray" cx="304" cy="-351" rx="91.78" ry="18"/>
<text text-anchor="middle" x="304" y="-347.3" font-family="Times,serif" font-size="14.00">var:waiting_list_place</text>
</a>
</g>
</g>
<!-- b2&#45;&gt;n4 -->
<g id="edge5" class="edge">
<title>b2&#45;&gt;n4</title>
<path fill="none" stroke="black" d="M304,-280C304,-284.69 304,-304.96 304,-322.49"/>
<polygon fill="black" stroke="black" points="300.5,-322.88 304,-332.88 307.5,-322.88 300.5,-322.88"/>
</g>
<!-- b3&#45;&gt;n2 -->
<g id="edge7" class="edge">
<title>b3&#45;&gt;n2</title>
<path fill="none" stroke="black" d="M403.95,-279.95C406.59,-282.57 414.26,-290.12 421,-296 433.16,-306.62 447,-317.89 458.92,-327.38"/>
<polygon fill="black" stroke="black" points="456.81,-330.17 466.83,-333.63 461.16,-324.68 456.81,-330.17"/>
</g>
</g>
</svg>
