<?xml version="1.0" encoding="UTF-8" standalone="no"?>
<!DOCTYPE svg PUBLIC "-//W3C//DTD SVG 1.1//EN"
 "http://www.w3.org/Graphics/SVG/1.1/DTD/svg11.dtd">
<!-- Generated by graphviz version 2.47.1 (20210417.1919)
 -->
<!-- Title: G Pages: 1 -->
<svg width="576pt" height="608pt"
 viewBox="0.00 0.00 576.00 608.00" xmlns="http://www.w3.org/2000/svg" xmlns:xlink="http://www.w3.org/1999/xlink">
<g id="graph0" class="graph" transform="scale(1 1) rotate(0) translate(4 604)">
<title>G</title>
<polygon fill="white" stroke="transparent" points="-4,4 -4,-604 572,-604 572,4 -4,4"/>
<g id="clust1" class="cluster">
<title>cluster_c1</title>
<g id="a_clust1"><a xlink:href="http://openprovenance.org/vargen#b" xlink:title="vargen:b">
<polygon fill="none" stroke="black" points="8,-8 8,-592 556,-592 556,-8 8,-8"/>
<text text-anchor="middle" x="282" y="-15.8" font-family="Times,serif" font-size="14.00">vargen:b</text>
</a>
</g>
</g>
<!-- n1 -->
<g id="node1" class="node">
<title>n1</title>
<g id="a_node1"><a xlink:href="http://openprovenance.org/var#credit_provider" xlink:title="var:credit_provider">
<polygon fill="#fed37f" stroke="black" points="316.42,-405.56 219,-418 121.58,-405.56 121.67,-385.44 316.33,-385.44 316.42,-405.56"/>
<text text-anchor="middle" x="219" y="-396.3" font-family="Times,serif" font-size="14.00">var:credit_provider</text>
</a>
</g>
</g>
<!-- n2 -->
<g id="node2" class="node">
<title>n2</title>
<g id="a_node2"><a xlink:href="http://openprovenance.org/var#machine" xlink:title="var:machine">
<polygon fill="#fed37f" stroke="black" points="260.47,-571.56 193,-584 125.53,-571.56 125.6,-551.44 260.4,-551.44 260.47,-571.56"/>
<text text-anchor="middle" x="193" y="-562.3" font-family="Times,serif" font-size="14.00">var:machine</text>
</a>
</g>
</g>
<!-- b1 -->
<g id="node10" class="node">
<title>b1</title>
<ellipse fill="gray" stroke="gray" cx="145" cy="-304" rx="1.8" ry="1.8"/>
</g>
<!-- n2&#45;&gt;b1 -->
<g id="edge5" class="edge">
<title>n2&#45;&gt;b1</title>
<path fill="none" stroke="#fed37f" d="M216.27,-551.35C265.44,-520.81 371.67,-444.69 325,-382 323.64,-380.17 169.87,-336.29 168,-335 155.9,-326.65 147.37,-309.94 145.42,-305.9"/>
<text text-anchor="middle" x="368.5" y="-439" font-family="Times,serif" font-size="10.00">actedOnBehalfOf</text>
</g>
<!-- ann1 -->
<g id="node3" class="node">
<title>ann1</title>
<polygon fill="none" stroke="gray" points="159.5,-501 16.5,-501 16.5,-465 165.5,-465 165.5,-495 159.5,-501"/>
<polyline fill="none" stroke="gray" points="159.5,-501 159.5,-495 "/>
<polyline fill="none" stroke="gray" points="165.5,-495 159.5,-495 "/>
<g id="a_node3_0"><a xlink:href="http://www.w3.org/ns/prov#type" xlink:title="&lt;TABLE&gt;">
<text text-anchor="start" x="27" y="-487" font-family="Times,serif" font-size="10.00">prov:type</text>
</a>
</g>
<g id="a_node3_1"><a xlink:href="http://www.w3.org/ns/prov#SoftwareAgent" xlink:title="&lt;TABLE&gt;">
<text text-anchor="start" x="72" y="-487" font-family="Times,serif" font-size="10.00">prov:SoftwareAgent</text>
</a>
</g>
<g id="a_node3_2"><a xlink:href="http://openprovenance.org/tmpl#label" xlink:title="&lt;TABLE&gt;">
<text text-anchor="start" x="27" y="-474" font-family="Times,serif" font-size="10.00">tmpl:label</text>
</a>
</g>
<g id="a_node3_3"><a xlink:href="http://openprovenance.org/var#machine_label" xlink:title="&lt;TABLE&gt;">
<text text-anchor="start" x="72" y="-474" font-family="Times,serif" font-size="10.00">var:machine_label</text>
</a>
</g>
</g>
<!-- ann1&#45;&gt;n2 -->
<g id="edge1" class="edge">
<title>ann1&#45;&gt;n2</title>
<path fill="none" stroke="gray" stroke-dasharray="5,2" d="M112.63,-501.18C131.46,-516.13 158.39,-537.52 175.79,-551.33"/>
</g>
<!-- n3 -->
<g id="node4" class="node">
<title>n3</title>
<g id="a_node4"><a xlink:href="http://openprovenance.org/vargen#assessing_application" xlink:title="vargen:assessing_application">
<polygon fill="#9fb1fc" stroke="#0000ff" points="528,-418 354,-418 354,-382 528,-382 528,-418"/>
<text text-anchor="middle" x="441" y="-396.3" font-family="Times,serif" font-size="14.00">vargen:assessing_application</text>
</a>
</g>
</g>
<!-- n4 -->
<g id="node6" class="node">
<title>n4</title>
<g id="a_node6"><a xlink:href="http://openprovenance.org/var#input" xlink:title="var:input">
<ellipse fill="#fffc87" stroke="#808080" cx="506" cy="-483" rx="42.49" ry="18"/>
<text text-anchor="middle" x="506" y="-479.3" font-family="Times,serif" font-size="14.00">var:input</text>
</a>
</g>
</g>
<!-- n3&#45;&gt;n4 -->
<g id="edge14" class="edge">
<title>n3&#45;&gt;n4</title>
<path fill="none" stroke="#8b0000" d="M481.31,-418.15C488.55,-422.94 495.28,-428.84 500,-436 503.52,-441.34 505.43,-447.8 506.4,-454.16"/>
<polygon fill="#8b0000" stroke="#8b0000" points="502.94,-454.89 507.24,-464.57 509.92,-454.32 502.94,-454.89"/>
<text text-anchor="middle" x="513.5" y="-439" font-family="Times,serif" font-size="10.00" fill="red">used</text>
</g>
<!-- b2 -->
<g id="node11" class="node">
<title>b2</title>
<ellipse fill="gray" stroke="gray" cx="410" cy="-483" rx="1.8" ry="1.8"/>
</g>
<!-- n3&#45;&gt;b2 -->
<g id="edge8" class="edge">
<title>n3&#45;&gt;b2</title>
<path fill="none" stroke="#fed37f" d="M428.48,-418.13C424.96,-423.61 421.43,-429.86 419,-436 412.29,-452.95 410.43,-475.46 410.07,-480.82"/>
<text text-anchor="middle" x="459.5" y="-439" font-family="Times,serif" font-size="10.00">wasAssociatedWith</text>
</g>
<!-- ann2 -->
<g id="node5" class="node">
<title>ann2</title>
<polygon fill="none" stroke="gray" points="520.5,-335 271.5,-335 271.5,-273 526.5,-273 526.5,-329 520.5,-335"/>
<polyline fill="none" stroke="gray" points="520.5,-335 520.5,-329 "/>
<polyline fill="none" stroke="gray" points="526.5,-329 520.5,-329 "/>
<g id="a_node5_4"><a xlink:href="http://www.w3.org/ns/prov#type" xlink:title="&lt;TABLE&gt;">
<text text-anchor="start" x="282" y="-321" font-family="Times,serif" font-size="10.00">prov:type</text>
</a>
</g>
<g id="a_node5_5"><a xlink:href="http://openprovenance.org/ns/creditscoring#AutomatedAssessingCreditApplication" xlink:title="&lt;TABLE&gt;">
<text text-anchor="start" x="344" y="-321" font-family="Times,serif" font-size="10.00">cs:AutomatedAssessingCreditApplication</text>
</a>
</g>
<g id="a_node5_6"><a xlink:href="http://www.w3.org/ns/prov#type" xlink:title="&lt;TABLE&gt;">
<text text-anchor="start" x="282" y="-308" font-family="Times,serif" font-size="10.00">prov:type</text>
</a>
</g>
<g id="a_node5_7"><a xlink:href="http://openprovenance.org/ns/plead#MachineLedActivity" xlink:title="&lt;TABLE&gt;">
<text text-anchor="start" x="344" y="-308" font-family="Times,serif" font-size="10.00">pl:MachineLedActivity</text>
</a>
</g>
<g id="a_node5_8"><a xlink:href="http://openprovenance.org/tmpl#endTime" xlink:title="&lt;TABLE&gt;">
<text text-anchor="start" x="282" y="-295" font-family="Times,serif" font-size="10.00">tmpl:endTime</text>
</a>
</g>
<g id="a_node5_9"><a xlink:href="http://openprovenance.org/var#endTime" xlink:title="&lt;TABLE&gt;">
<text text-anchor="start" x="344" y="-295" font-family="Times,serif" font-size="10.00">var:endTime</text>
</a>
</g>
<g id="a_node5_10"><a xlink:href="http://openprovenance.org/tmpl#startTime" xlink:title="&lt;TABLE&gt;">
<text text-anchor="start" x="282" y="-282" font-family="Times,serif" font-size="10.00">tmpl:startTime</text>
</a>
</g>
<g id="a_node5_11"><a xlink:href="http://openprovenance.org/var#startTime" xlink:title="&lt;TABLE&gt;">
<text text-anchor="start" x="344" y="-282" font-family="Times,serif" font-size="10.00">var:startTime</text>
</a>
</g>
</g>
<!-- ann2&#45;&gt;n3 -->
<g id="edge2" class="edge">
<title>ann2&#45;&gt;n3</title>
<path fill="none" stroke="gray" stroke-dasharray="5,2" d="M412.4,-335C419.32,-350.47 427.5,-368.79 433.34,-381.85"/>
</g>
<!-- n5 -->
<g id="node7" class="node">
<title>n5</title>
<g id="a_node7"><a xlink:href="http://openprovenance.org/var#machine_recommendation" xlink:title="var:machine_recommendation">
<ellipse fill="#fffc87" stroke="#808080" cx="183" cy="-208" rx="118.88" ry="18"/>
<text text-anchor="middle" x="183" y="-204.3" font-family="Times,serif" font-size="14.00">var:machine_recommendation</text>
</a>
</g>
</g>
<!-- n5&#45;&gt;n2 -->
<g id="edge15" class="edge">
<title>n5&#45;&gt;n2</title>
<path fill="none" stroke="#fed37f" d="M156.62,-225.71C103.6,-261.39 -6.72,-347.52 43,-418 78.9,-468.89 134.72,-417.51 175,-465 192.86,-486.06 195.61,-518.76 195.05,-540.99"/>
<polygon fill="#fed37f" stroke="#fed37f" points="191.54,-541.09 194.54,-551.25 198.53,-541.44 191.54,-541.09"/>
<text text-anchor="middle" x="78" y="-397.5" font-family="Times,serif" font-size="10.00">wasAttributedTo</text>
</g>
<!-- n5&#45;&gt;n3 -->
<g id="edge4" class="edge">
<title>n5&#45;&gt;n3</title>
<path fill="none" stroke="darkgreen" d="M178.37,-226.31C172.29,-253.35 165.36,-305.57 193,-335 212.36,-355.62 291.6,-345.97 319,-353 343.92,-359.4 370.77,-369.18 392.92,-378.09"/>
<polygon fill="darkgreen" stroke="darkgreen" points="391.84,-381.43 402.42,-381.97 394.48,-374.95 391.84,-381.43"/>
<text text-anchor="middle" x="228" y="-301.5" font-family="Times,serif" font-size="10.00" fill="darkgreen">wasGeneratedBy</text>
</g>
<!-- b3 -->
<g id="node12" class="node">
<title>b3</title>
<ellipse fill="gray" stroke="gray" cx="546" cy="-304" rx="1.8" ry="1.8"/>
</g>
<!-- n5&#45;&gt;b3 -->
<g id="edge11" class="edge">
<title>n5&#45;&gt;b3</title>
<path fill="none" stroke="black" d="M288.76,-216.38C378.99,-224.75 499.7,-241.54 536,-273 545.29,-281.06 545.98,-297.98 546.01,-302.09"/>
<text text-anchor="middle" x="533" y="-247" font-family="Times,serif" font-size="10.00">wasDerivedFrom</text>
</g>
<!-- ann3 -->
<g id="node8" class="node">
<title>ann3</title>
<polygon fill="none" stroke="gray" points="318.5,-153 41.5,-153 41.5,-39 324.5,-39 324.5,-147 318.5,-153"/>
<polyline fill="none" stroke="gray" points="318.5,-153 318.5,-147 "/>
<polyline fill="none" stroke="gray" points="324.5,-147 318.5,-147 "/>
<g id="a_node8_12"><a xlink:href="http://www.w3.org/ns/prov#type" xlink:title="&lt;TABLE&gt;">
<text text-anchor="start" x="52" y="-139" font-family="Times,serif" font-size="10.00">prov:type</text>
</a>
</g>
<g id="a_node8_13"><a xlink:href="http://openprovenance.org/ns/creditscoring#AutomatedRecommendation" xlink:title="&lt;TABLE&gt;">
<text text-anchor="start" x="182" y="-139" font-family="Times,serif" font-size="10.00">cs:AutomatedRecommendation</text>
</a>
</g>
<g id="a_node8_14"><a xlink:href="http://www.w3.org/ns/prov#type" xlink:title="&lt;TABLE&gt;">
<text text-anchor="start" x="52" y="-126" font-family="Times,serif" font-size="10.00">prov:type</text>
</a>
</g>
<g id="a_node8_15"><a xlink:href="http://openprovenance.org/ns/plead#AutomatedRecommendation" xlink:title="&lt;TABLE&gt;">
<text text-anchor="start" x="182" y="-126" font-family="Times,serif" font-size="10.00">pl:AutomatedRecommendation</text>
</a>
</g>
<g id="a_node8_16"><a xlink:href="http://openprovenance.org/ns/creditscoring#credit_score_threshold" xlink:title="&lt;TABLE&gt;">
<text text-anchor="start" x="52" y="-113" font-family="Times,serif" font-size="10.00">cs:credit_score_threshold</text>
</a>
</g>
<g id="a_node8_17"><a xlink:href="http://openprovenance.org/var#credit_score_threshold" xlink:title="&lt;TABLE&gt;">
<text text-anchor="start" x="182" y="-113" font-family="Times,serif" font-size="10.00">var:credit_score_threshold</text>
</a>
</g>
<g id="a_node8_18"><a xlink:href="http://openprovenance.org/ns/creditscoring#credit_worthiness" xlink:title="&lt;TABLE&gt;">
<text text-anchor="start" x="52" y="-100" font-family="Times,serif" font-size="10.00">cs:credit_worthiness</text>
</a>
</g>
<g id="a_node8_19"><a xlink:href="http://openprovenance.org/var#credit_worthiness" xlink:title="&lt;TABLE&gt;">
<text text-anchor="start" x="182" y="-100" font-family="Times,serif" font-size="10.00">var:credit_worthiness</text>
</a>
</g>
<g id="a_node8_20"><a xlink:href="http://openprovenance.org/ns/creditscoring#credit_worthiness_threshold" xlink:title="&lt;TABLE&gt;">
<text text-anchor="start" x="52" y="-87" font-family="Times,serif" font-size="10.00">cs:credit_worthiness_threshold</text>
</a>
</g>
<g id="a_node8_21"><a xlink:href="http://openprovenance.org/var#credit_worthiness_threshold" xlink:title="&lt;TABLE&gt;">
<text text-anchor="start" x="182" y="-87" font-family="Times,serif" font-size="10.00">var:credit_worthiness_threshold</text>
</a>
</g>
<g id="a_node8_22"><a xlink:href="http://openprovenance.org/ns/creditscoring#recommendation" xlink:title="&lt;TABLE&gt;">
<text text-anchor="start" x="52" y="-74" font-family="Times,serif" font-size="10.00">cs:recommendation</text>
</a>
</g>
<g id="a_node8_23"><a xlink:href="http://openprovenance.org/var#decision_result" xlink:title="&lt;TABLE&gt;">
<text text-anchor="start" x="182" y="-74" font-family="Times,serif" font-size="10.00">var:decision_result</text>
</a>
</g>
<g id="a_node8_24"><a xlink:href="http://openprovenance.org/ns/plead#created_at" xlink:title="&lt;TABLE&gt;">
<text text-anchor="start" x="52" y="-61" font-family="Times,serif" font-size="10.00">pl:created_at</text>
</a>
</g>
<g id="a_node8_25"><a xlink:href="http://openprovenance.org/var#timestamp" xlink:title="&lt;TABLE&gt;">
<text text-anchor="start" x="182" y="-61" font-family="Times,serif" font-size="10.00">var:timestamp</text>
</a>
</g>
<g id="a_node8_26"><a xlink:href="http://openprovenance.org/ns/plead#reason" xlink:title="&lt;TABLE&gt;">
<text text-anchor="start" x="52" y="-48" font-family="Times,serif" font-size="10.00">pl:reason</text>
</a>
</g>
<g id="a_node8_27"><a xlink:href="http://openprovenance.org/var#decision_reason" xlink:title="&lt;TABLE&gt;">
<text text-anchor="start" x="182" y="-48" font-family="Times,serif" font-size="10.00">var:decision_reason</text>
</a>
</g>
</g>
<!-- ann3&#45;&gt;n5 -->
<g id="edge3" class="edge">
<title>ann3&#45;&gt;n5</title>
<path fill="none" stroke="gray" stroke-dasharray="5,2" d="M183,-153.29C183,-166.61 183,-179.83 183,-189.82"/>
</g>
<!-- n6 -->
<g id="node9" class="node">
<title>n6</title>
<g id="a_node9"><a xlink:href="http://openprovenance.org/var#credit_assessment_model" xlink:title="var:credit_assessment_model">
<ellipse fill="#fffc87" stroke="#808080" cx="410" cy="-566" rx="115.08" ry="18"/>
<text text-anchor="middle" x="410" y="-562.3" font-family="Times,serif" font-size="14.00">var:credit_assessment_model</text>
</a>
</g>
</g>
<!-- b1&#45;&gt;n1 -->
<g id="edge6" class="edge">
<title>b1&#45;&gt;n1</title>
<path fill="none" stroke="#fed37f" d="M145.33,-305.78C146.85,-309.33 153.39,-324.19 161,-335 171.76,-350.29 185.8,-365.87 197.37,-377.83"/>
<polygon fill="#fed37f" stroke="#fed37f" points="195.04,-380.46 204.55,-385.12 200.03,-375.54 195.04,-380.46"/>
</g>
<!-- b1&#45;&gt;n3 -->
<g id="edge7" class="edge">
<title>b1&#45;&gt;n3</title>
<path fill="none" stroke="gray" d="M145.19,-305.93C146.07,-310.09 150.29,-327.24 161,-335 198.63,-362.26 219.74,-338.84 264,-353 274.79,-356.45 276.3,-360.28 287,-364 305.08,-370.29 324.76,-375.75 343.81,-380.37"/>
<polygon fill="gray" stroke="gray" points="343.17,-383.82 353.71,-382.71 344.78,-377 343.17,-383.82"/>
<text text-anchor="middle" x="303" y="-356" font-family="Times,serif" font-size="10.00" fill="dimgray">activity</text>
</g>
<!-- b2&#45;&gt;n2 -->
<g id="edge9" class="edge">
<title>b2&#45;&gt;n2</title>
<path fill="none" stroke="#fed37f" d="M408.88,-484.76C401.82,-489.56 362.48,-515.8 327,-530 308.38,-537.45 287.67,-543.77 268.21,-548.89"/>
<polygon fill="#fed37f" stroke="#fed37f" points="267.28,-545.51 258.47,-551.38 269.02,-552.29 267.28,-545.51"/>
</g>
<!-- b2&#45;&gt;n6 -->
<g id="edge10" class="edge">
<title>b2&#45;&gt;n6</title>
<path fill="none" stroke="gray" d="M410,-484.91C410,-490.11 410,-516.62 410,-537.74"/>
<polygon fill="gray" stroke="gray" points="406.5,-537.85 410,-547.85 413.5,-537.85 406.5,-537.85"/>
<text text-anchor="middle" x="419.5" y="-522" font-family="Times,serif" font-size="10.00" fill="dimgray">plan</text>
</g>
<!-- b3&#45;&gt;n3 -->
<g id="edge13" class="edge">
<title>b3&#45;&gt;n3</title>
<path fill="none" stroke="gray" d="M545.92,-305.83C545.52,-309.58 543.44,-325.21 536,-335 535.43,-335.75 502.22,-358.05 475.23,-376.12"/>
<polygon fill="gray" stroke="gray" points="473.1,-373.34 466.74,-381.81 476.99,-379.15 473.1,-373.34"/>
<text text-anchor="middle" x="523" y="-356" font-family="Times,serif" font-size="10.00" fill="dimgray">activity</text>
</g>
<!-- b3&#45;&gt;n4 -->
<g id="edge12" class="edge">
<title>b3&#45;&gt;n4</title>
<path fill="none" stroke="black" d="M546.08,-305.96C546.85,-315.43 552.22,-392.9 527,-447 525.52,-450.18 523.82,-453.44 522.06,-456.63"/>
<polygon fill="black" stroke="black" points="519.01,-454.9 516.99,-465.3 525.05,-458.43 519.01,-454.9"/>
</g>
</g>
</svg>
