<?xml version="1.0" encoding="UTF-8" standalone="no"?>
<!DOCTYPE svg PUBLIC "-//W3C//DTD SVG 1.1//EN"
 "http://www.w3.org/Graphics/SVG/1.1/DTD/svg11.dtd">
<!-- Generated by graphviz version 2.47.1 (20210417.1919)
 -->
<!-- Title: G Pages: 1 -->
<svg width="412pt" height="489pt"
 viewBox="0.00 0.00 412.00 489.00" xmlns="http://www.w3.org/2000/svg" xmlns:xlink="http://www.w3.org/1999/xlink">
<g id="graph0" class="graph" transform="scale(1 1) rotate(0) translate(4 485)">
<title>G</title>
<polygon fill="white" stroke="transparent" points="-4,4 -4,-485 408,-485 408,4 -4,4"/>
<g id="clust1" class="cluster">
<title>cluster_c1</title>
<g id="a_clust1"><a xlink:href="http://openprovenance.org/vargen#b" xlink:title="vargen:b">
<polygon fill="none" stroke="black" points="8,-8 8,-473 396,-473 396,-8 8,-8"/>
<text text-anchor="middle" x="202" y="-15.8" font-family="Times,serif" font-size="14.00">vargen:b</text>
</a>
</g>
</g>
<!-- n1 -->
<g id="node1" class="node">
<title>n1</title>
<g id="a_node1"><a xlink:href="http://openprovenance.org/var#cra" xlink:title="var:cra">
<polygon fill="#fed37f" stroke="black" points="270.26,-452.56 227,-465 183.74,-452.56 183.78,-432.44 270.22,-432.44 270.26,-452.56"/>
<text text-anchor="middle" x="227" y="-443.3" font-family="Times,serif" font-size="14.00">var:cra</text>
</a>
</g>
</g>
<!-- ann1 -->
<g id="node2" class="node">
<title>ann1</title>
<polygon fill="none" stroke="gray" points="381.5,-392 246.5,-392 246.5,-343 387.5,-343 387.5,-386 381.5,-392"/>
<polyline fill="none" stroke="gray" points="381.5,-392 381.5,-386 "/>
<polyline fill="none" stroke="gray" points="387.5,-386 381.5,-386 "/>
<g id="a_node2_0"><a xlink:href="http://www.w3.org/ns/prov#type" xlink:title="&lt;TABLE&gt;">
<text text-anchor="start" x="257" y="-377.5" font-family="Times,serif" font-size="10.00">prov:type</text>
</a>
</g>
<g id="a_node2_1"><a xlink:href="http://openprovenance.org/ns/creditscoring#DataProvider" xlink:title="&lt;TABLE&gt;">
<text text-anchor="start" x="302" y="-377.5" font-family="Times,serif" font-size="10.00">cs:DataProvider</text>
</a>
</g>
<g id="a_node2_2"><a xlink:href="http://www.w3.org/ns/prov#type" xlink:title="&lt;TABLE&gt;">
<text text-anchor="start" x="257" y="-364.5" font-family="Times,serif" font-size="10.00">prov:type</text>
</a>
</g>
<g id="a_node2_3"><a xlink:href="http://openprovenance.org/var#provider_type" xlink:title="&lt;TABLE&gt;">
<text text-anchor="start" x="302" y="-364.5" font-family="Times,serif" font-size="10.00">var:provider_type</text>
</a>
</g>
<g id="a_node2_4"><a xlink:href="http://openprovenance.org/tmpl#label" xlink:title="&lt;TABLE&gt;">
<text text-anchor="start" x="257" y="-351.5" font-family="Times,serif" font-size="10.00">tmpl:label</text>
</a>
</g>
<g id="a_node2_5"><a xlink:href="http://openprovenance.org/var#provider_label" xlink:title="&lt;TABLE&gt;">
<text text-anchor="start" x="302" y="-351.5" font-family="Times,serif" font-size="10.00">var:provider_label</text>
</a>
</g>
</g>
<!-- ann1&#45;&gt;n1 -->
<g id="edge1" class="edge">
<title>ann1&#45;&gt;n1</title>
<path fill="none" stroke="gray" stroke-dasharray="5,2" d="M289.51,-392.17C274.21,-405.35 255.71,-421.28 242.82,-432.38"/>
</g>
<!-- n2 -->
<g id="node3" class="node">
<title>n2</title>
<g id="a_node3"><a xlink:href="http://openprovenance.org/vargen#credit_search" xlink:title="vargen:credit_search">
<polygon fill="#9fb1fc" stroke="#0000ff" points="145.5,-296 16.5,-296 16.5,-260 145.5,-260 145.5,-296"/>
<text text-anchor="middle" x="81" y="-274.3" font-family="Times,serif" font-size="14.00">vargen:credit_search</text>
</a>
</g>
</g>
<!-- n4 -->
<g id="node7" class="node">
<title>n4</title>
<g id="a_node7"><a xlink:href="http://openprovenance.org/var#subject_identifier" xlink:title="var:subject_identifier">
<ellipse fill="#fffc87" stroke="#808080" cx="123" cy="-367.5" rx="85.29" ry="18"/>
<text text-anchor="middle" x="123" y="-363.8" font-family="Times,serif" font-size="14.00">var:subject_identifier</text>
</a>
</g>
</g>
<!-- n2&#45;&gt;n4 -->
<g id="edge9" class="edge">
<title>n2&#45;&gt;n4</title>
<path fill="none" stroke="#8b0000" d="M102.47,-296.04C107.7,-301.25 112.73,-307.37 116,-314 119.78,-321.65 121.74,-330.66 122.7,-339.03"/>
<polygon fill="#8b0000" stroke="#8b0000" points="119.22,-339.42 123.45,-349.14 126.2,-338.91 119.22,-339.42"/>
<text text-anchor="middle" x="129.5" y="-317" font-family="Times,serif" font-size="10.00" fill="red">used</text>
</g>
<!-- b1 -->
<g id="node8" class="node">
<title>b1</title>
<ellipse fill="gray" stroke="gray" cx="18" cy="-367.5" rx="1.8" ry="1.8"/>
</g>
<!-- n2&#45;&gt;b1 -->
<g id="edge5" class="edge">
<title>n2&#45;&gt;b1</title>
<path fill="none" stroke="#fed37f" d="M49.14,-296.16C42.31,-301.12 35.74,-307.1 31,-314 18.67,-331.96 18.01,-360.49 18,-365.68"/>
<text text-anchor="middle" x="71.5" y="-317" font-family="Times,serif" font-size="10.00">wasAssociatedWith</text>
</g>
<!-- ann2 -->
<g id="node4" class="node">
<title>ann2</title>
<polygon fill="none" stroke="gray" points="201.5,-213 16.5,-213 16.5,-164 207.5,-164 207.5,-207 201.5,-213"/>
<polyline fill="none" stroke="gray" points="201.5,-213 201.5,-207 "/>
<polyline fill="none" stroke="gray" points="207.5,-207 201.5,-207 "/>
<g id="a_node4_6"><a xlink:href="http://www.w3.org/ns/prov#type" xlink:title="&lt;TABLE&gt;">
<text text-anchor="start" x="27" y="-198.5" font-family="Times,serif" font-size="10.00">prov:type</text>
</a>
</g>
<g id="a_node4_7"><a xlink:href="http://openprovenance.org/ns/creditscoring#SearchingCreditHistory" xlink:title="&lt;TABLE&gt;">
<text text-anchor="start" x="89" y="-198.5" font-family="Times,serif" font-size="10.00">cs:SearchingCreditHistory</text>
</a>
</g>
<g id="a_node4_8"><a xlink:href="http://openprovenance.org/tmpl#endTime" xlink:title="&lt;TABLE&gt;">
<text text-anchor="start" x="27" y="-185.5" font-family="Times,serif" font-size="10.00">tmpl:endTime</text>
</a>
</g>
<g id="a_node4_9"><a xlink:href="http://openprovenance.org/var#endTime" xlink:title="&lt;TABLE&gt;">
<text text-anchor="start" x="89" y="-185.5" font-family="Times,serif" font-size="10.00">var:endTime</text>
</a>
</g>
<g id="a_node4_10"><a xlink:href="http://openprovenance.org/tmpl#startTime" xlink:title="&lt;TABLE&gt;">
<text text-anchor="start" x="27" y="-172.5" font-family="Times,serif" font-size="10.00">tmpl:startTime</text>
</a>
</g>
<g id="a_node4_11"><a xlink:href="http://openprovenance.org/var#startTime" xlink:title="&lt;TABLE&gt;">
<text text-anchor="start" x="89" y="-172.5" font-family="Times,serif" font-size="10.00">var:startTime</text>
</a>
</g>
</g>
<!-- ann2&#45;&gt;n2 -->
<g id="edge2" class="edge">
<title>ann2&#45;&gt;n2</title>
<path fill="none" stroke="gray" stroke-dasharray="5,2" d="M75.49,-213.01C70.02,-218.24 65.16,-224.26 62,-231 57.59,-240.39 61.49,-251.08 66.88,-259.79"/>
</g>
<!-- n3 -->
<g id="node5" class="node">
<title>n3</title>
<g id="a_node5"><a xlink:href="http://openprovenance.org/var#credit_report" xlink:title="var:credit_report">
<ellipse fill="#fffc87" stroke="#808080" cx="295" cy="-188.5" rx="69.59" ry="18"/>
<text text-anchor="middle" x="295" y="-184.8" font-family="Times,serif" font-size="14.00">var:credit_report</text>
</a>
</g>
</g>
<!-- n3&#45;&gt;n1 -->
<g id="edge10" class="edge">
<title>n3&#45;&gt;n1</title>
<path fill="none" stroke="#fed37f" d="M287.06,-206.56C274.45,-234.44 250.04,-291.81 238,-343 231.75,-369.56 229.05,-400.82 227.88,-421.88"/>
<polygon fill="#fed37f" stroke="#fed37f" points="224.37,-422 227.39,-432.16 231.36,-422.33 224.37,-422"/>
<text text-anchor="middle" x="280" y="-317" font-family="Times,serif" font-size="10.00">wasAttributedTo</text>
</g>
<!-- n3&#45;&gt;n2 -->
<g id="edge4" class="edge">
<title>n3&#45;&gt;n2</title>
<path fill="none" stroke="darkgreen" d="M254.01,-203.08C242.16,-206.67 229.15,-210.29 217,-213 190.25,-218.97 115.77,-213.12 95,-231 89.47,-235.76 86.09,-242.62 84.03,-249.61"/>
<polygon fill="darkgreen" stroke="darkgreen" points="80.54,-249.17 81.86,-259.69 87.39,-250.65 80.54,-249.17"/>
<text text-anchor="middle" x="130" y="-234" font-family="Times,serif" font-size="10.00" fill="darkgreen">wasGeneratedBy</text>
</g>
<!-- b2 -->
<g id="node9" class="node">
<title>b2</title>
<ellipse fill="gray" stroke="gray" cx="171" cy="-278" rx="1.8" ry="1.8"/>
</g>
<!-- n3&#45;&gt;b2 -->
<g id="edge7" class="edge">
<title>n3&#45;&gt;b2</title>
<path fill="none" stroke="black" d="M252.95,-202.85C219.4,-213.69 177.58,-227.7 175,-231 163.96,-245.16 169.18,-269.76 170.65,-275.69"/>
<text text-anchor="middle" x="210" y="-234" font-family="Times,serif" font-size="10.00">wasDerivedFrom</text>
</g>
<!-- ann3 -->
<g id="node6" class="node">
<title>ann3</title>
<polygon fill="none" stroke="gray" points="364.5,-127 219.5,-127 219.5,-39 370.5,-39 370.5,-121 364.5,-127"/>
<polyline fill="none" stroke="gray" points="364.5,-127 364.5,-121 "/>
<polyline fill="none" stroke="gray" points="370.5,-121 364.5,-121 "/>
<g id="a_node6_12"><a xlink:href="http://www.w3.org/ns/prov#type" xlink:title="&lt;TABLE&gt;">
<text text-anchor="start" x="230" y="-113" font-family="Times,serif" font-size="10.00">prov:type</text>
</a>
</g>
<g id="a_node6_13"><a xlink:href="http://openprovenance.org/ns/creditscoring#CreditHistory" xlink:title="&lt;TABLE&gt;">
<text text-anchor="start" x="293" y="-113" font-family="Times,serif" font-size="10.00">cs:CreditHistory</text>
</a>
</g>
<g id="a_node6_14"><a xlink:href="http://www.w3.org/ns/prov#type" xlink:title="&lt;TABLE&gt;">
<text text-anchor="start" x="230" y="-100" font-family="Times,serif" font-size="10.00">prov:type</text>
</a>
</g>
<g id="a_node6_15"><a xlink:href="http://openprovenance.org/ns/plead#Data" xlink:title="&lt;TABLE&gt;">
<text text-anchor="start" x="293" y="-100" font-family="Times,serif" font-size="10.00">pl:Data</text>
</a>
</g>
<g id="a_node6_16"><a xlink:href="http://www.w3.org/ns/prov#type" xlink:title="&lt;TABLE&gt;">
<text text-anchor="start" x="230" y="-87" font-family="Times,serif" font-size="10.00">prov:type</text>
</a>
</g>
<g id="a_node6_17"><a xlink:href="http://openprovenance.org/ns/plead#ExternalData" xlink:title="&lt;TABLE&gt;">
<text text-anchor="start" x="293" y="-87" font-family="Times,serif" font-size="10.00">pl:ExternalData</text>
</a>
</g>
<g id="a_node6_18"><a xlink:href="http://www.w3.org/ns/prov#type" xlink:title="&lt;TABLE&gt;">
<text text-anchor="start" x="230" y="-74" font-family="Times,serif" font-size="10.00">prov:type</text>
</a>
</g>
<g id="a_node6_19"><a xlink:href="http://openprovenance.org/var#report_type" xlink:title="&lt;TABLE&gt;">
<text text-anchor="start" x="293" y="-74" font-family="Times,serif" font-size="10.00">var:report_type</text>
</a>
</g>
<g id="a_node6_20"><a xlink:href="http://openprovenance.org/ns/creditscoring#credit_score" xlink:title="&lt;TABLE&gt;">
<text text-anchor="start" x="230" y="-61" font-family="Times,serif" font-size="10.00">cs:credit_score</text>
</a>
</g>
<g id="a_node6_21"><a xlink:href="http://openprovenance.org/var#credit_score" xlink:title="&lt;TABLE&gt;">
<text text-anchor="start" x="293" y="-61" font-family="Times,serif" font-size="10.00">var:credit_score</text>
</a>
</g>
<g id="a_node6_22"><a xlink:href="http://openprovenance.org/ns/plead#created_at" xlink:title="&lt;TABLE&gt;">
<text text-anchor="start" x="230" y="-48" font-family="Times,serif" font-size="10.00">pl:created_at</text>
</a>
</g>
<g id="a_node6_23"><a xlink:href="http://openprovenance.org/var#timestamp" xlink:title="&lt;TABLE&gt;">
<text text-anchor="start" x="293" y="-48" font-family="Times,serif" font-size="10.00">var:timestamp</text>
</a>
</g>
</g>
<!-- ann3&#45;&gt;n3 -->
<g id="edge3" class="edge">
<title>ann3&#45;&gt;n3</title>
<path fill="none" stroke="gray" stroke-dasharray="5,2" d="M295,-127.29C295,-142.47 295,-158.65 295,-170.41"/>
</g>
<!-- b1&#45;&gt;n1 -->
<g id="edge6" class="edge">
<title>b1&#45;&gt;n1</title>
<path fill="none" stroke="#fed37f" d="M18.18,-369.58C18.84,-373.31 21.56,-385.73 29,-392 69.63,-426.2 130.07,-438.88 173.48,-443.51"/>
<polygon fill="#fed37f" stroke="#fed37f" points="173.28,-447 183.57,-444.47 173.95,-440.04 173.28,-447"/>
</g>
<!-- b2&#45;&gt;n4 -->
<g id="edge8" class="edge">
<title>b2&#45;&gt;n4</title>
<path fill="none" stroke="black" d="M170.46,-279.98C167.22,-285.89 150.04,-317.21 137.27,-340.48"/>
<polygon fill="black" stroke="black" points="134.04,-339.1 132.3,-349.55 140.18,-342.47 134.04,-339.1"/>
</g>
</g>
</svg>
