<?xml version="1.0" encoding="UTF-8" standalone="no"?>
<!DOCTYPE svg PUBLIC "-//W3C//DTD SVG 1.1//EN"
 "http://www.w3.org/Graphics/SVG/1.1/DTD/svg11.dtd">
<!-- Generated by graphviz version 2.47.1 (20210417.1919)
 -->
<!-- Title: G Pages: 1 -->
<svg width="278pt" height="223pt"
 viewBox="0.00 0.00 278.00 222.60" xmlns="http://www.w3.org/2000/svg" xmlns:xlink="http://www.w3.org/1999/xlink">
<g id="graph0" class="graph" transform="scale(1 1) rotate(0) translate(4 218.6)">
<title>G</title>
<polygon fill="white" stroke="transparent" points="-4,4 -4,-218.6 274,-218.6 274,4 -4,4"/>
<g id="clust1" class="cluster">
<title>cluster_c1</title>
<g id="a_clust1"><a xlink:href="http://openprovenance.org/vargen#b" xlink:title="vargen:b">
<polygon fill="none" stroke="black" points="8,-8 8,-206.6 262,-206.6 262,-8 8,-8"/>
<text text-anchor="middle" x="135" y="-15.8" font-family="Times,serif" font-size="14.00">vargen:b</text>
</a>
</g>
</g>
<!-- n1 -->
<g id="node1" class="node">
<title>n1</title>
<g id="a_node1"><a xlink:href="http://openprovenance.org/var#machine_recommendation" xlink:title="var:machine_recommendation">
<ellipse fill="#fffc87" stroke="#808080" cx="135" cy="-180.6" rx="118.88" ry="18"/>
<text text-anchor="middle" x="135" y="-176.9" font-family="Times,serif" font-size="14.00">var:machine_recommendation</text>
</a>
</g>
</g>
<!-- n2 -->
<g id="node2" class="node">
<title>n2</title>
<g id="a_node2"><a xlink:href="http://openprovenance.org/var#decision" xlink:title="var:decision">
<ellipse fill="#fffc87" stroke="#808080" cx="135" cy="-57" rx="53.89" ry="18"/>
<text text-anchor="middle" x="135" y="-53.3" font-family="Times,serif" font-size="14.00">var:decision</text>
</a>
</g>
</g>
<!-- b1 -->
<g id="node3" class="node">
<title>b1</title>
<ellipse fill="gray" stroke="gray" cx="135" cy="-123.8" rx="1.8" ry="1.8"/>
</g>
<!-- n2&#45;&gt;b1 -->
<g id="edge1" class="edge">
<title>n2&#45;&gt;b1</title>
<path fill="none" stroke="black" d="M135,-75.03C135,-91.82 135,-115.8 135,-121.53"/>
<text text-anchor="middle" x="170" y="-96" font-family="Times,serif" font-size="10.00">wasDerivedFrom</text>
</g>
<!-- b1&#45;&gt;n1 -->
<g id="edge2" class="edge">
<title>b1&#45;&gt;n1</title>
<path fill="none" stroke="black" d="M135,-125.75C135,-129.11 135,-140.87 135,-152.55"/>
<polygon fill="black" stroke="black" points="131.5,-152.58 135,-162.58 138.5,-152.58 131.5,-152.58"/>
</g>
</g>
</svg>
