<?xml version="1.0" encoding="UTF-8" standalone="no"?>
<!DOCTYPE svg PUBLIC "-//W3C//DTD SVG 1.1//EN"
 "http://www.w3.org/Graphics/SVG/1.1/DTD/svg11.dtd">
<!-- Generated by graphviz version 2.47.1 (20210417.1919)
 -->
<!-- Title: G Pages: 1 -->
<svg width="671pt" height="483pt"
 viewBox="0.00 0.00 671.00 483.00" xmlns="http://www.w3.org/2000/svg" xmlns:xlink="http://www.w3.org/1999/xlink">
<g id="graph0" class="graph" transform="scale(1 1) rotate(0) translate(4 479)">
<title>G</title>
<polygon fill="white" stroke="transparent" points="-4,4 -4,-479 667,-479 667,4 -4,4"/>
<g id="clust1" class="cluster">
<title>cluster_c1</title>
<g id="a_clust1"><a xlink:href="http://openprovenance.org/vargen#b" xlink:title="vargen:b">
<polygon fill="none" stroke="black" points="8,-8 8,-467 650,-467 650,-8 8,-8"/>
<text text-anchor="middle" x="329" y="-15.8" font-family="Times,serif" font-size="14.00">vargen:b</text>
</a>
</g>
</g>
<!-- n1 -->
<g id="node1" class="node">
<title>n1</title>
<g id="a_node1"><a xlink:href="http://openprovenance.org/var#credit_provider" xlink:title="var:credit_provider">
<polygon fill="#fed37f" stroke="black" points="316.42,-267.56 219,-280 121.58,-267.56 121.67,-247.44 316.33,-247.44 316.42,-267.56"/>
<text text-anchor="middle" x="219" y="-258.3" font-family="Times,serif" font-size="14.00">var:credit_provider</text>
</a>
</g>
</g>
<!-- n2 -->
<g id="node2" class="node">
<title>n2</title>
<g id="a_node2"><a xlink:href="http://openprovenance.org/var#officer" xlink:title="var:officer">
<polygon fill="#fed37f" stroke="black" points="163.79,-446.56 105,-459 46.21,-446.56 46.26,-426.44 163.74,-426.44 163.79,-446.56"/>
<text text-anchor="middle" x="105" y="-437.3" font-family="Times,serif" font-size="14.00">var:officer</text>
</a>
</g>
</g>
<!-- b1 -->
<g id="node10" class="node">
<title>b1</title>
<ellipse fill="gray" stroke="gray" cx="200" cy="-159.5" rx="1.8" ry="1.8"/>
</g>
<!-- n2&#45;&gt;b1 -->
<g id="edge4" class="edge">
<title>n2&#45;&gt;b1</title>
<path fill="none" stroke="#fed37f" d="M91.23,-426.41C69.82,-403.65 33.55,-357.35 59,-327 63.82,-321.25 320.18,-285.75 325,-280 335.28,-267.74 333.9,-257.3 325,-244 309.76,-221.23 229.4,-217.3 211,-197 201.04,-186.01 200.09,-166.31 200.01,-161.55"/>
<text text-anchor="middle" x="260.5" y="-301" font-family="Times,serif" font-size="10.00">actedOnBehalfOf</text>
</g>
<!-- ann1 -->
<g id="node3" class="node">
<title>ann1</title>
<polygon fill="none" stroke="gray" points="636,-376 506,-376 506,-327 642,-327 642,-370 636,-376"/>
<polyline fill="none" stroke="gray" points="636,-376 636,-370 "/>
<polyline fill="none" stroke="gray" points="642,-370 636,-370 "/>
<g id="a_node3_0"><a xlink:href="http://www.w3.org/ns/prov#type" xlink:title="&lt;TABLE&gt;">
<text text-anchor="start" x="516" y="-361.5" font-family="Times,serif" font-size="10.00">prov:type</text>
</a>
</g>
<g id="a_node3_1"><a xlink:href="http://www.w3.org/ns/prov#Person" xlink:title="&lt;TABLE&gt;">
<text text-anchor="start" x="561" y="-361.5" font-family="Times,serif" font-size="10.00">prov:Person</text>
</a>
</g>
<g id="a_node3_2"><a xlink:href="http://www.w3.org/ns/prov#type" xlink:title="&lt;TABLE&gt;">
<text text-anchor="start" x="516" y="-348.5" font-family="Times,serif" font-size="10.00">prov:type</text>
</a>
</g>
<g id="a_node3_3"><a xlink:href="http://www.w3.org/ns/prov#officer_type" xlink:title="&lt;TABLE&gt;">
<text text-anchor="start" x="561" y="-348.5" font-family="Times,serif" font-size="10.00">prov:officer_type</text>
</a>
</g>
<g id="a_node3_4"><a xlink:href="http://openprovenance.org/tmpl#label" xlink:title="&lt;TABLE&gt;">
<text text-anchor="start" x="516" y="-335.5" font-family="Times,serif" font-size="10.00">tmpl:label</text>
</a>
</g>
<g id="a_node3_5"><a xlink:href="http://openprovenance.org/var#officer_label" xlink:title="&lt;TABLE&gt;">
<text text-anchor="start" x="561" y="-335.5" font-family="Times,serif" font-size="10.00">var:officer_label</text>
</a>
</g>
</g>
<!-- ann1&#45;&gt;n2 -->
<g id="edge1" class="edge">
<title>ann1&#45;&gt;n2</title>
<path fill="none" stroke="gray" stroke-dasharray="5,2" d="M505.67,-373.75C502.75,-374.54 499.85,-375.29 497,-376 431.97,-392.25 415.19,-394.45 349,-405 284.44,-415.29 267.67,-413.41 203,-423 190.27,-424.89 176.66,-427.12 163.74,-429.33"/>
</g>
<!-- n3 -->
<g id="node4" class="node">
<title>n3</title>
<g id="a_node4"><a xlink:href="http://openprovenance.org/vargen#reviewing_credit_recommendation" xlink:title="vargen:reviewing_credit_recommendation">
<polygon fill="#9fb1fc" stroke="#0000ff" points="622,-280 374,-280 374,-244 622,-244 622,-280"/>
<text text-anchor="middle" x="498" y="-258.3" font-family="Times,serif" font-size="14.00">vargen:reviewing_credit_recommendation</text>
</a>
</g>
</g>
<!-- n4 -->
<g id="node6" class="node">
<title>n4</title>
<g id="a_node6"><a xlink:href="http://openprovenance.org/var#machine_recommendation" xlink:title="var:machine_recommendation">
<ellipse fill="#fffc87" stroke="#808080" cx="187" cy="-351.5" rx="118.88" ry="18"/>
<text text-anchor="middle" x="187" y="-347.8" font-family="Times,serif" font-size="14.00">var:machine_recommendation</text>
</a>
</g>
</g>
<!-- n3&#45;&gt;n4 -->
<g id="edge16" class="edge">
<title>n3&#45;&gt;n4</title>
<path fill="none" stroke="#8b0000" d="M427.62,-280.01C410.44,-285.02 392.32,-291.06 376,-298 367.02,-301.82 366.05,-305.36 357,-309 329.64,-319.99 298.59,-328.62 270.58,-335.09"/>
<polygon fill="#8b0000" stroke="#8b0000" points="269.8,-331.68 260.81,-337.29 271.34,-338.5 269.8,-331.68"/>
<text text-anchor="middle" x="385.5" y="-301" font-family="Times,serif" font-size="10.00" fill="red">used</text>
</g>
<!-- n7 -->
<g id="node9" class="node">
<title>n7</title>
<g id="a_node9"><a xlink:href="http://openprovenance.org/var#review_input" xlink:title="var:review_input">
<ellipse fill="#fffc87" stroke="#808080" cx="417" cy="-351.5" rx="70.69" ry="18"/>
<text text-anchor="middle" x="417" y="-347.8" font-family="Times,serif" font-size="14.00">var:review_input</text>
</a>
</g>
</g>
<!-- n3&#45;&gt;n7 -->
<g id="edge17" class="edge">
<title>n3&#45;&gt;n7</title>
<path fill="none" stroke="#8b0000" d="M504.84,-280.35C507.29,-289.51 508.3,-300.56 503,-309 496.25,-319.75 485.85,-327.78 474.59,-333.75"/>
<polygon fill="#8b0000" stroke="#8b0000" points="472.94,-330.66 465.42,-338.12 475.95,-336.98 472.94,-330.66"/>
<text text-anchor="middle" x="515.5" y="-301" font-family="Times,serif" font-size="10.00" fill="red">used</text>
</g>
<!-- b2 -->
<g id="node11" class="node">
<title>b2</title>
<ellipse fill="gray" stroke="gray" cx="326" cy="-351.5" rx="1.8" ry="1.8"/>
</g>
<!-- n3&#45;&gt;b2 -->
<g id="edge7" class="edge">
<title>n3&#45;&gt;b2</title>
<path fill="none" stroke="#fed37f" d="M456.48,-280.11C443.97,-285.55 430.31,-291.77 418,-298 409.29,-302.41 407.97,-305.17 399,-309 372.61,-320.27 358.8,-308.35 337,-327 329.61,-333.33 326.86,-345.71 326.18,-349.42"/>
<text text-anchor="middle" x="458.5" y="-301" font-family="Times,serif" font-size="10.00">wasAssociatedWith</text>
</g>
<!-- ann2 -->
<g id="node5" class="node">
<title>ann2</title>
<polygon fill="none" stroke="gray" points="614,-197 348,-197 348,-122 620,-122 620,-191 614,-197"/>
<polyline fill="none" stroke="gray" points="614,-197 614,-191 "/>
<polyline fill="none" stroke="gray" points="620,-191 614,-191 "/>
<g id="a_node5_6"><a xlink:href="http://www.w3.org/ns/prov#type" xlink:title="&lt;TABLE&gt;">
<text text-anchor="start" x="358" y="-182.5" font-family="Times,serif" font-size="10.00">prov:type</text>
</a>
</g>
<g id="a_node5_7"><a xlink:href="http://openprovenance.org/ns/creditscoring#ReviewingMachineCreditRecommendation" xlink:title="&lt;TABLE&gt;">
<text text-anchor="start" x="420" y="-182.5" font-family="Times,serif" font-size="10.00">cs:ReviewingMachineCreditRecommendation</text>
</a>
</g>
<g id="a_node5_8"><a xlink:href="http://www.w3.org/ns/prov#type" xlink:title="&lt;TABLE&gt;">
<text text-anchor="start" x="358" y="-169.5" font-family="Times,serif" font-size="10.00">prov:type</text>
</a>
</g>
<g id="a_node5_9"><a xlink:href="http://openprovenance.org/ns/plead#HumanLedActivity" xlink:title="&lt;TABLE&gt;">
<text text-anchor="start" x="420" y="-169.5" font-family="Times,serif" font-size="10.00">pl:HumanLedActivity</text>
</a>
</g>
<g id="a_node5_10"><a xlink:href="http://www.w3.org/ns/prov#type" xlink:title="&lt;TABLE&gt;">
<text text-anchor="start" x="358" y="-156.5" font-family="Times,serif" font-size="10.00">prov:type</text>
</a>
</g>
<g id="a_node5_11"><a xlink:href="http://openprovenance.org/var#review_type" xlink:title="&lt;TABLE&gt;">
<text text-anchor="start" x="420" y="-156.5" font-family="Times,serif" font-size="10.00">var:review_type</text>
</a>
</g>
<g id="a_node5_12"><a xlink:href="http://openprovenance.org/tmpl#endTime" xlink:title="&lt;TABLE&gt;">
<text text-anchor="start" x="358" y="-143.5" font-family="Times,serif" font-size="10.00">tmpl:endTime</text>
</a>
</g>
<g id="a_node5_13"><a xlink:href="http://openprovenance.org/var#endTime" xlink:title="&lt;TABLE&gt;">
<text text-anchor="start" x="420" y="-143.5" font-family="Times,serif" font-size="10.00">var:endTime</text>
</a>
</g>
<g id="a_node5_14"><a xlink:href="http://openprovenance.org/tmpl#startTime" xlink:title="&lt;TABLE&gt;">
<text text-anchor="start" x="358" y="-130.5" font-family="Times,serif" font-size="10.00">tmpl:startTime</text>
</a>
</g>
<g id="a_node5_15"><a xlink:href="http://openprovenance.org/var#startTime" xlink:title="&lt;TABLE&gt;">
<text text-anchor="start" x="420" y="-130.5" font-family="Times,serif" font-size="10.00">var:startTime</text>
</a>
</g>
</g>
<!-- ann2&#45;&gt;n3 -->
<g id="edge2" class="edge">
<title>ann2&#45;&gt;n3</title>
<path fill="none" stroke="gray" stroke-dasharray="5,2" d="M489.09,-197.07C491.31,-213.01 493.81,-230.93 495.6,-243.74"/>
</g>
<!-- n5 -->
<g id="node7" class="node">
<title>n5</title>
<g id="a_node7"><a xlink:href="http://openprovenance.org/var#credit_assessment_policy" xlink:title="var:credit_assessment_policy">
<ellipse fill="#fffc87" stroke="#808080" cx="326" cy="-441" rx="114.28" ry="18"/>
<text text-anchor="middle" x="326" y="-437.3" font-family="Times,serif" font-size="14.00">var:credit_assessment_policy</text>
</a>
</g>
</g>
<!-- n6 -->
<g id="node8" class="node">
<title>n6</title>
<g id="a_node8"><a xlink:href="http://openprovenance.org/var#decision" xlink:title="var:decision">
<ellipse fill="#fffc87" stroke="#808080" cx="222" cy="-57" rx="53.89" ry="18"/>
<text text-anchor="middle" x="222" y="-53.3" font-family="Times,serif" font-size="14.00">var:decision</text>
</a>
</g>
</g>
<!-- n6&#45;&gt;n2 -->
<g id="edge18" class="edge">
<title>n6&#45;&gt;n2</title>
<path fill="none" stroke="#fed37f" d="M197.87,-73.3C156.46,-101.23 73.36,-164.93 43,-244 36.14,-261.86 32.2,-325.7 46,-376 49.89,-390.2 52.56,-393.7 62,-405 66.48,-410.36 71.87,-415.49 77.3,-420.1"/>
<polygon fill="#fed37f" stroke="#fed37f" points="75.2,-422.9 85.18,-426.43 79.58,-417.44 75.2,-422.9"/>
<text text-anchor="middle" x="78" y="-259.5" font-family="Times,serif" font-size="10.00">wasAttributedTo</text>
</g>
<!-- n6&#45;&gt;n3 -->
<g id="edge3" class="edge">
<title>n6&#45;&gt;n3</title>
<path fill="none" stroke="darkgreen" d="M241.21,-74.15C246.5,-79.59 251.69,-86.06 255,-93 275.07,-135.1 235.88,-164.16 269,-197 291.74,-219.55 381.48,-205.28 412,-215 429.64,-220.61 447.89,-229.82 463.02,-238.53"/>
<polygon fill="darkgreen" stroke="darkgreen" points="461.62,-241.76 472.01,-243.85 465.18,-235.74 461.62,-241.76"/>
<text text-anchor="middle" x="304" y="-157" font-family="Times,serif" font-size="10.00" fill="darkgreen">wasGeneratedBy</text>
</g>
<!-- b3 -->
<g id="node12" class="node">
<title>b3</title>
<ellipse fill="gray" stroke="gray" cx="640" cy="-159.5" rx="1.8" ry="1.8"/>
</g>
<!-- n6&#45;&gt;b3 -->
<g id="edge10" class="edge">
<title>n6&#45;&gt;b3</title>
<path fill="none" stroke="black" d="M275.51,-59.52C373.65,-63.4 577.17,-76.82 629,-122 640.17,-131.74 640.22,-152.38 640.05,-157.39"/>
<text text-anchor="middle" x="628" y="-96" font-family="Times,serif" font-size="10.00">wasDerivedFrom</text>
</g>
<!-- b4 -->
<g id="node13" class="node">
<title>b4</title>
<ellipse fill="gray" stroke="gray" cx="222" cy="-159.5" rx="1.8" ry="1.8"/>
</g>
<!-- n6&#45;&gt;b4 -->
<g id="edge13" class="edge">
<title>n6&#45;&gt;b4</title>
<path fill="none" stroke="black" d="M199.86,-73.49C193.9,-78.91 188.22,-85.53 185,-93 183.07,-97.49 182.73,-99.67 185,-104 191.52,-116.45 202.73,-110.64 211,-122 219.72,-133.99 221.6,-152.94 221.94,-157.49"/>
<text text-anchor="middle" x="220" y="-96" font-family="Times,serif" font-size="10.00">wasDerivedFrom</text>
</g>
<!-- b1&#45;&gt;n1 -->
<g id="edge5" class="edge">
<title>b1&#45;&gt;n1</title>
<path fill="none" stroke="#fed37f" d="M200.21,-161.63C201.6,-168.98 209.46,-210.56 214.57,-237.56"/>
<polygon fill="#fed37f" stroke="#fed37f" points="211.14,-238.24 216.43,-247.42 218.01,-236.94 211.14,-238.24"/>
</g>
<!-- b1&#45;&gt;n3 -->
<g id="edge6" class="edge">
<title>b1&#45;&gt;n3</title>
<path fill="none" stroke="gray" d="M199.96,-161.6C199.85,-166.54 200.1,-186.95 211,-197 239.08,-222.87 258.59,-203.51 295,-215 306.97,-218.78 309,-222.32 321,-226 340.91,-232.11 362.41,-237.4 383.34,-241.9"/>
<polygon fill="gray" stroke="gray" points="382.72,-245.34 393.23,-243.97 384.16,-238.49 382.72,-245.34"/>
<text text-anchor="middle" x="337" y="-218" font-family="Times,serif" font-size="10.00" fill="dimgray">activity</text>
</g>
<!-- b2&#45;&gt;n2 -->
<g id="edge8" class="edge">
<title>b2&#45;&gt;n2</title>
<path fill="none" stroke="#fed37f" d="M325.82,-353.57C325.13,-357.28 322.35,-369.63 315,-376 293.63,-394.53 226.44,-413.09 173.75,-425.41"/>
<polygon fill="#fed37f" stroke="#fed37f" points="172.72,-422.06 163.76,-427.72 174.29,-428.88 172.72,-422.06"/>
</g>
<!-- b2&#45;&gt;n5 -->
<g id="edge9" class="edge">
<title>b2&#45;&gt;n5</title>
<path fill="none" stroke="gray" d="M326,-353.48C326,-359.28 326,-389.54 326,-412.66"/>
<polygon fill="gray" stroke="gray" points="322.5,-412.66 326,-422.66 329.5,-412.66 322.5,-412.66"/>
<text text-anchor="middle" x="335.5" y="-397" font-family="Times,serif" font-size="10.00" fill="dimgray">plan</text>
</g>
<!-- b3&#45;&gt;n3 -->
<g id="edge12" class="edge">
<title>b3&#45;&gt;n3</title>
<path fill="none" stroke="gray" d="M639.98,-161.54C639.82,-166.23 638.6,-185.7 629,-197 623,-204.06 581.01,-223.98 546.16,-239.74"/>
<polygon fill="gray" stroke="gray" points="544.71,-236.56 537.02,-243.85 547.58,-242.94 544.71,-236.56"/>
<text text-anchor="middle" x="612" y="-218" font-family="Times,serif" font-size="10.00" fill="dimgray">activity</text>
</g>
<!-- b3&#45;&gt;n7 -->
<g id="edge11" class="edge">
<title>b3&#45;&gt;n7</title>
<path fill="none" stroke="black" d="M640.26,-161.38C642.76,-170.05 661.77,-240.67 631,-280 625.85,-286.58 532.25,-315.78 470.56,-334.48"/>
<polygon fill="black" stroke="black" points="469.51,-331.14 460.95,-337.38 471.54,-337.84 469.51,-331.14"/>
</g>
<!-- b4&#45;&gt;n3 -->
<g id="edge15" class="edge">
<title>b4&#45;&gt;n3</title>
<path fill="none" stroke="gray" d="M222.11,-161.63C222.67,-166.7 225.7,-187.57 238,-197 280.46,-229.54 305.87,-199.29 357,-215 367.83,-218.33 369.42,-221.93 380,-226 394.07,-231.41 409.35,-236.5 424.1,-241.03"/>
<polygon fill="gray" stroke="gray" points="423.11,-244.39 433.69,-243.92 425.13,-237.69 423.11,-244.39"/>
<text text-anchor="middle" x="396" y="-218" font-family="Times,serif" font-size="10.00" fill="dimgray">activity</text>
</g>
<!-- b4&#45;&gt;n4 -->
<g id="edge14" class="edge">
<title>b4&#45;&gt;n4</title>
<path fill="none" stroke="black" d="M222.11,-161.62C222.69,-166.68 225.74,-187.52 238,-197 277.87,-227.85 317.3,-176.63 350,-215 353.17,-218.72 350.45,-221.13 350,-226 347.77,-250.31 354.99,-260.73 340,-280 320.16,-305.51 288.94,-322.13 259.86,-332.79"/>
<polygon fill="black" stroke="black" points="258.39,-329.59 250.1,-336.18 260.69,-336.2 258.39,-329.59"/>
</g>
</g>
</svg>
