<?xml version="1.0" encoding="UTF-8" standalone="no"?>
<!DOCTYPE svg PUBLIC "-//W3C//DTD SVG 1.1//EN"
 "http://www.w3.org/Graphics/SVG/1.1/DTD/svg11.dtd">
<!-- Generated by graphviz version 2.47.1 (20210417.1919)
 -->
<!-- Title: G Pages: 1 -->
<svg width="410pt" height="598pt"
 viewBox="0.00 0.00 410.09 598.00" xmlns="http://www.w3.org/2000/svg" xmlns:xlink="http://www.w3.org/1999/xlink">
<g id="graph0" class="graph" transform="scale(1 1) rotate(0) translate(4 594)">
<title>G</title>
<polygon fill="white" stroke="transparent" points="-4,4 -4,-594 406.09,-594 406.09,4 -4,4"/>
<g id="clust1" class="cluster">
<title>cluster_c1</title>
<g id="a_clust1"><a xlink:href="http://openprovenance.org/vargen#b" xlink:title="vargen:b">
<polygon fill="none" stroke="black" points="21.09,-8 21.09,-582 394.09,-582 394.09,-8 21.09,-8"/>
<text text-anchor="middle" x="207.59" y="-15.8" font-family="Times,serif" font-size="14.00">vargen:b</text>
</a>
</g>
</g>
<!-- n1 -->
<g id="node1" class="node">
<title>n1</title>
<g id="a_node1"><a xlink:href="http://openprovenance.org/var#credit_provider" xlink:title="var:credit_provider">
<polygon fill="#fed37f" stroke="black" points="293.51,-561.56 196.09,-574 98.67,-561.56 98.76,-541.44 293.42,-541.44 293.51,-561.56"/>
<text text-anchor="middle" x="196.09" y="-552.3" font-family="Times,serif" font-size="14.00">var:credit_provider</text>
</a>
</g>
</g>
<!-- ann1 -->
<g id="node2" class="node">
<title>ann1</title>
<polygon fill="none" stroke="gray" points="380.09,-501 216.09,-501 216.09,-439 386.09,-439 386.09,-495 380.09,-501"/>
<polyline fill="none" stroke="gray" points="380.09,-501 380.09,-495 "/>
<polyline fill="none" stroke="gray" points="386.09,-495 380.09,-495 "/>
<g id="a_node2_0"><a xlink:href="http://www.w3.org/ns/prov#type" xlink:title="&lt;TABLE&gt;">
<text text-anchor="start" x="226.09" y="-487" font-family="Times,serif" font-size="10.00">prov:type</text>
</a>
</g>
<g id="a_node2_1"><a xlink:href="http://openprovenance.org/ns/plead#DataController" xlink:title="&lt;TABLE&gt;">
<text text-anchor="start" x="271.09" y="-487" font-family="Times,serif" font-size="10.00">pl:DataController</text>
</a>
</g>
<g id="a_node2_2"><a xlink:href="http://www.w3.org/ns/prov#type" xlink:title="&lt;TABLE&gt;">
<text text-anchor="start" x="226.09" y="-474" font-family="Times,serif" font-size="10.00">prov:type</text>
</a>
</g>
<g id="a_node2_3"><a xlink:href="http://www.w3.org/ns/prov#Organization" xlink:title="&lt;TABLE&gt;">
<text text-anchor="start" x="271.09" y="-474" font-family="Times,serif" font-size="10.00">prov:Organization</text>
</a>
</g>
<g id="a_node2_4"><a xlink:href="http://www.w3.org/ns/prov#type" xlink:title="&lt;TABLE&gt;">
<text text-anchor="start" x="226.09" y="-461" font-family="Times,serif" font-size="10.00">prov:type</text>
</a>
</g>
<g id="a_node2_5"><a xlink:href="http://openprovenance.org/var#credit_provider_type" xlink:title="&lt;TABLE&gt;">
<text text-anchor="start" x="271.09" y="-461" font-family="Times,serif" font-size="10.00">var:credit_provider_type</text>
</a>
</g>
<g id="a_node2_6"><a xlink:href="http://openprovenance.org/tmpl#label" xlink:title="&lt;TABLE&gt;">
<text text-anchor="start" x="226.09" y="-448" font-family="Times,serif" font-size="10.00">tmpl:label</text>
</a>
</g>
<g id="a_node2_7"><a xlink:href="http://openprovenance.org/var#credit_provider_label" xlink:title="&lt;TABLE&gt;">
<text text-anchor="start" x="271.09" y="-448" font-family="Times,serif" font-size="10.00">var:credit_provider_label</text>
</a>
</g>
</g>
<!-- ann1&#45;&gt;n1 -->
<g id="edge1" class="edge">
<title>ann1&#45;&gt;n1</title>
<path fill="none" stroke="gray" stroke-dasharray="5,2" d="M263.48,-501.09C246.3,-514.83 226.79,-530.44 213.21,-541.31"/>
</g>
<!-- n2 -->
<g id="node3" class="node">
<title>n2</title>
<g id="a_node3"><a xlink:href="http://openprovenance.org/vargen#processing_application" xlink:title="vargen:processing_application">
<polygon fill="#9fb1fc" stroke="#0000ff" points="337.09,-392 155.09,-392 155.09,-356 337.09,-356 337.09,-392"/>
<text text-anchor="middle" x="246.09" y="-370.3" font-family="Times,serif" font-size="14.00">vargen:processing_application</text>
</a>
</g>
</g>
<!-- n3 -->
<g id="node5" class="node">
<title>n3</title>
<g id="a_node5"><a xlink:href="http://openprovenance.org/var#application" xlink:title="var:application">
<ellipse fill="#fffc87" stroke="#808080" cx="113.09" cy="-470" rx="63.89" ry="18"/>
<text text-anchor="middle" x="113.09" y="-466.3" font-family="Times,serif" font-size="14.00">var:application</text>
</a>
</g>
</g>
<!-- n2&#45;&gt;n3 -->
<g id="edge10" class="edge">
<title>n2&#45;&gt;n3</title>
<path fill="none" stroke="#8b0000" d="M219.76,-392C211.19,-397.64 201.68,-404 193.09,-410 176.18,-421.81 157.61,-435.46 142.63,-446.65"/>
<polygon fill="#8b0000" stroke="#8b0000" points="140.17,-444.12 134.26,-452.92 144.36,-449.72 140.17,-444.12"/>
<text text-anchor="middle" x="202.59" y="-413" font-family="Times,serif" font-size="10.00" fill="red">used</text>
</g>
<!-- b1 -->
<g id="node8" class="node">
<title>b1</title>
<ellipse fill="gray" stroke="gray" cx="196.09" cy="-470" rx="1.8" ry="1.8"/>
</g>
<!-- n2&#45;&gt;b1 -->
<g id="edge5" class="edge">
<title>n2&#45;&gt;b1</title>
<path fill="none" stroke="#fed37f" d="M234.38,-392.14C226.08,-404.74 215.06,-422.48 207.09,-439 201.89,-449.79 197.63,-463.73 196.43,-467.82"/>
<text text-anchor="middle" x="262.59" y="-413" font-family="Times,serif" font-size="10.00">wasAssociatedWith</text>
</g>
<!-- ann2 -->
<g id="node4" class="node">
<title>ann2</title>
<polygon fill="none" stroke="gray" points="273.59,-309 70.59,-309 70.59,-247 279.59,-247 279.59,-303 273.59,-309"/>
<polyline fill="none" stroke="gray" points="273.59,-309 273.59,-303 "/>
<polyline fill="none" stroke="gray" points="279.59,-303 273.59,-303 "/>
<g id="a_node4_8"><a xlink:href="http://www.w3.org/ns/prov#type" xlink:title="&lt;TABLE&gt;">
<text text-anchor="start" x="81.09" y="-295" font-family="Times,serif" font-size="10.00">prov:type</text>
</a>
</g>
<g id="a_node4_9"><a xlink:href="http://openprovenance.org/ns/creditscoring#AssessingCreditApplication" xlink:title="&lt;TABLE&gt;">
<text text-anchor="start" x="143.09" y="-295" font-family="Times,serif" font-size="10.00">cs:AssessingCreditApplication</text>
</a>
</g>
<g id="a_node4_10"><a xlink:href="http://www.w3.org/ns/prov#type" xlink:title="&lt;TABLE&gt;">
<text text-anchor="start" x="81.09" y="-282" font-family="Times,serif" font-size="10.00">prov:type</text>
</a>
</g>
<g id="a_node4_11"><a xlink:href="http://openprovenance.org/var#processing_type" xlink:title="&lt;TABLE&gt;">
<text text-anchor="start" x="143.09" y="-282" font-family="Times,serif" font-size="10.00">var:processing_type</text>
</a>
</g>
<g id="a_node4_12"><a xlink:href="http://openprovenance.org/tmpl#endTime" xlink:title="&lt;TABLE&gt;">
<text text-anchor="start" x="81.09" y="-269" font-family="Times,serif" font-size="10.00">tmpl:endTime</text>
</a>
</g>
<g id="a_node4_13"><a xlink:href="http://openprovenance.org/var#endTime" xlink:title="&lt;TABLE&gt;">
<text text-anchor="start" x="143.09" y="-269" font-family="Times,serif" font-size="10.00">var:endTime</text>
</a>
</g>
<g id="a_node4_14"><a xlink:href="http://openprovenance.org/tmpl#startTime" xlink:title="&lt;TABLE&gt;">
<text text-anchor="start" x="81.09" y="-256" font-family="Times,serif" font-size="10.00">tmpl:startTime</text>
</a>
</g>
<g id="a_node4_15"><a xlink:href="http://openprovenance.org/var#startTime" xlink:title="&lt;TABLE&gt;">
<text text-anchor="start" x="143.09" y="-256" font-family="Times,serif" font-size="10.00">var:startTime</text>
</a>
</g>
</g>
<!-- ann2&#45;&gt;n2 -->
<g id="edge2" class="edge">
<title>ann2&#45;&gt;n2</title>
<path fill="none" stroke="gray" stroke-dasharray="5,2" d="M197.75,-309C209.44,-324.47 223.27,-342.79 233.14,-355.85"/>
</g>
<!-- n4 -->
<g id="node6" class="node">
<title>n4</title>
<g id="a_node6"><a xlink:href="http://openprovenance.org/var#decision" xlink:title="var:decision">
<ellipse fill="#fffc87" stroke="#808080" cx="95.09" cy="-182" rx="53.89" ry="18"/>
<text text-anchor="middle" x="95.09" y="-178.3" font-family="Times,serif" font-size="14.00">var:decision</text>
</a>
</g>
</g>
<!-- n4&#45;&gt;n1 -->
<g id="edge11" class="edge">
<title>n4&#45;&gt;n1</title>
<path fill="none" stroke="#fed37f" d="M75.56,-198.92C62.77,-210.68 47.17,-227.91 40.09,-247 0.86,-352.85 -25.39,-409.04 40.09,-501 52.16,-517.95 69.94,-529.63 89.21,-537.67"/>
<polygon fill="#fed37f" stroke="#fed37f" points="88.18,-541.02 98.77,-541.33 90.68,-534.48 88.18,-541.02"/>
<text text-anchor="middle" x="39.09" y="-371.5" font-family="Times,serif" font-size="10.00">wasAttributedTo</text>
</g>
<!-- n4&#45;&gt;n2 -->
<g id="edge4" class="edge">
<title>n4&#45;&gt;n2</title>
<path fill="none" stroke="darkgreen" d="M148.59,-184.39C194.21,-188.76 257.29,-203.03 289.09,-247 311.21,-277.59 287.6,-320.43 267.61,-347.44"/>
<polygon fill="darkgreen" stroke="darkgreen" points="264.64,-345.56 261.31,-355.62 270.19,-349.84 264.64,-345.56"/>
<text text-anchor="middle" x="332.09" y="-275.5" font-family="Times,serif" font-size="10.00" fill="darkgreen">wasGeneratedBy</text>
</g>
<!-- b2 -->
<g id="node9" class="node">
<title>b2</title>
<ellipse fill="gray" stroke="gray" cx="51.09" cy="-278" rx="1.8" ry="1.8"/>
</g>
<!-- n4&#45;&gt;b2 -->
<g id="edge7" class="edge">
<title>n4&#45;&gt;b2</title>
<path fill="none" stroke="black" d="M85.68,-199.83C78.73,-212.58 69.28,-230.63 62.09,-247 57.27,-257.97 52.75,-271.79 51.46,-275.84"/>
<text text-anchor="middle" x="110.09" y="-221" font-family="Times,serif" font-size="10.00">wasDerivedFrom</text>
</g>
<!-- ann3 -->
<g id="node7" class="node">
<title>ann3</title>
<polygon fill="none" stroke="gray" points="181.09,-127 29.09,-127 29.09,-39 187.09,-39 187.09,-121 181.09,-127"/>
<polyline fill="none" stroke="gray" points="181.09,-127 181.09,-121 "/>
<polyline fill="none" stroke="gray" points="187.09,-121 181.09,-121 "/>
<g id="a_node7_16"><a xlink:href="http://www.w3.org/ns/prov#type" xlink:title="&lt;TABLE&gt;">
<text text-anchor="start" x="39.09" y="-113" font-family="Times,serif" font-size="10.00">prov:type</text>
</a>
</g>
<g id="a_node7_17"><a xlink:href="http://openprovenance.org/ns/creditscoring#CreditDecision" xlink:title="&lt;TABLE&gt;">
<text text-anchor="start" x="95.09" y="-113" font-family="Times,serif" font-size="10.00">cs:CreditDecision</text>
</a>
</g>
<g id="a_node7_18"><a xlink:href="http://www.w3.org/ns/prov#type" xlink:title="&lt;TABLE&gt;">
<text text-anchor="start" x="39.09" y="-100" font-family="Times,serif" font-size="10.00">prov:type</text>
</a>
</g>
<g id="a_node7_19"><a xlink:href="http://openprovenance.org/ns/plead#Decision" xlink:title="&lt;TABLE&gt;">
<text text-anchor="start" x="95.09" y="-100" font-family="Times,serif" font-size="10.00">pl:Decision</text>
</a>
</g>
<g id="a_node7_20"><a xlink:href="http://www.w3.org/ns/prov#type" xlink:title="&lt;TABLE&gt;">
<text text-anchor="start" x="39.09" y="-87" font-family="Times,serif" font-size="10.00">prov:type</text>
</a>
</g>
<g id="a_node7_21"><a xlink:href="http://openprovenance.org/var#decision_type" xlink:title="&lt;TABLE&gt;">
<text text-anchor="start" x="95.09" y="-87" font-family="Times,serif" font-size="10.00">var:decision_type</text>
</a>
</g>
<g id="a_node7_22"><a xlink:href="http://openprovenance.org/ns/creditscoring#result" xlink:title="&lt;TABLE&gt;">
<text text-anchor="start" x="39.09" y="-74" font-family="Times,serif" font-size="10.00">cs:result</text>
</a>
</g>
<g id="a_node7_23"><a xlink:href="http://openprovenance.org/var#decision_result" xlink:title="&lt;TABLE&gt;">
<text text-anchor="start" x="95.09" y="-74" font-family="Times,serif" font-size="10.00">var:decision_result</text>
</a>
</g>
<g id="a_node7_24"><a xlink:href="http://openprovenance.org/ns/plead#created_at" xlink:title="&lt;TABLE&gt;">
<text text-anchor="start" x="39.09" y="-61" font-family="Times,serif" font-size="10.00">pl:created_at</text>
</a>
</g>
<g id="a_node7_25"><a xlink:href="http://openprovenance.org/var#timestamp" xlink:title="&lt;TABLE&gt;">
<text text-anchor="start" x="95.09" y="-61" font-family="Times,serif" font-size="10.00">var:timestamp</text>
</a>
</g>
<g id="a_node7_26"><a xlink:href="http://openprovenance.org/ns/plead#reason" xlink:title="&lt;TABLE&gt;">
<text text-anchor="start" x="39.09" y="-48" font-family="Times,serif" font-size="10.00">pl:reason</text>
</a>
</g>
<g id="a_node7_27"><a xlink:href="http://openprovenance.org/var#decision_reason" xlink:title="&lt;TABLE&gt;">
<text text-anchor="start" x="95.09" y="-48" font-family="Times,serif" font-size="10.00">var:decision_reason</text>
</a>
</g>
</g>
<!-- ann3&#45;&gt;n4 -->
<g id="edge3" class="edge">
<title>ann3&#45;&gt;n4</title>
<path fill="none" stroke="gray" stroke-dasharray="5,2" d="M102.31,-127.11C100.58,-140.06 98.77,-153.54 97.4,-163.77"/>
</g>
<!-- b1&#45;&gt;n1 -->
<g id="edge6" class="edge">
<title>b1&#45;&gt;n1</title>
<path fill="none" stroke="#fed37f" d="M196.09,-471.94C196.09,-477.71 196.09,-508.65 196.09,-531.09"/>
<polygon fill="#fed37f" stroke="#fed37f" points="192.59,-531.27 196.09,-541.27 199.59,-531.27 192.59,-531.27"/>
</g>
<!-- b2&#45;&gt;n2 -->
<g id="edge9" class="edge">
<title>b2&#45;&gt;n2</title>
<path fill="none" stroke="gray" d="M51.13,-279.9C51.34,-283.98 52.76,-300.79 62.09,-309 89.12,-332.79 106.89,-315.72 141.09,-327 161.79,-333.82 183.99,-343.23 202.62,-351.75"/>
<polygon fill="gray" stroke="gray" points="201.19,-354.95 211.74,-355.98 204.14,-348.6 201.19,-354.95"/>
<text text-anchor="middle" x="186.09" y="-330" font-family="Times,serif" font-size="10.00" fill="dimgray">activity</text>
</g>
<!-- b2&#45;&gt;n3 -->
<g id="edge8" class="edge">
<title>b2&#45;&gt;n3</title>
<path fill="none" stroke="black" d="M51.22,-279.82C51.85,-283.51 54.82,-298.92 62.09,-309 81.7,-336.19 106.54,-325.8 121.09,-356 134.18,-383.16 128.72,-418.32 122.24,-442.15"/>
<polygon fill="black" stroke="black" points="118.83,-441.34 119.35,-451.93 125.54,-443.33 118.83,-441.34"/>
</g>
</g>
</svg>
