<?xml version="1.0" encoding="UTF-8" standalone="no"?>
<!DOCTYPE svg PUBLIC "-//W3C//DTD SVG 1.1//EN"
 "http://www.w3.org/Graphics/SVG/1.1/DTD/svg11.dtd">
<!-- Generated by graphviz version 2.47.1 (20210417.1919)
 -->
<!-- Title: G Pages: 1 -->
<svg width="359pt" height="223pt"
 viewBox="0.00 0.00 359.00 222.60" xmlns="http://www.w3.org/2000/svg" xmlns:xlink="http://www.w3.org/1999/xlink">
<g id="graph0" class="graph" transform="scale(1 1) rotate(0) translate(4 218.6)">
<title>G</title>
<polygon fill="white" stroke="transparent" points="-4,4 -4,-218.6 355,-218.6 355,4 -4,4"/>
<g id="clust1" class="cluster">
<title>cluster_c1</title>
<g id="a_clust1"><a xlink:href="http://openprovenance.org/vargen#b" xlink:title="vargen:b">
<polygon fill="none" stroke="black" points="8,-8 8,-206.6 343,-206.6 343,-8 8,-8"/>
<text text-anchor="middle" x="175.5" y="-15.8" font-family="Times,serif" font-size="14.00">vargen:b</text>
</a>
</g>
</g>
<!-- b1 -->
<g id="node1" class="node">
<title>b1</title>
<ellipse fill="gray" stroke="gray" cx="145" cy="-123.8" rx="1.8" ry="1.8"/>
</g>
<!-- n2 -->
<g id="node3" class="node">
<title>n2</title>
<g id="a_node3"><a xlink:href="http://openprovenance.org/var#record" xlink:title="var:record">
<ellipse fill="lightgray" stroke="dimgray" cx="145" cy="-180.6" rx="46.59" ry="18"/>
<text text-anchor="middle" x="145" y="-176.9" font-family="Times,serif" font-size="14.00">var:record</text>
</a>
</g>
</g>
<!-- b1&#45;&gt;n2 -->
<g id="edge2" class="edge">
<title>b1&#45;&gt;n2</title>
<path fill="none" stroke="black" d="M145,-125.75C145,-129.11 145,-140.87 145,-152.55"/>
<polygon fill="black" stroke="black" points="141.5,-152.58 145,-162.58 148.5,-152.58 141.5,-152.58"/>
</g>
<!-- n1 -->
<g id="node2" class="node">
<title>n1</title>
<g id="a_node2"><a xlink:href="http://openprovenance.org/var#credit_report" xlink:title="var:credit_report">
<ellipse fill="lightgray" stroke="dimgray" cx="265" cy="-57" rx="69.59" ry="18"/>
<text text-anchor="middle" x="265" y="-53.3" font-family="Times,serif" font-size="14.00">var:credit_report</text>
</a>
</g>
</g>
<!-- n1&#45;&gt;b1 -->
<g id="edge1" class="edge">
<title>n1&#45;&gt;b1</title>
<path fill="none" stroke="black" d="M236.26,-73.52C203.53,-91.19 153.59,-118.16 145.98,-122.27"/>
<text text-anchor="middle" x="232" y="-96" font-family="Times,serif" font-size="10.00">wasDerivedFrom</text>
</g>
<!-- ann1 -->
<g id="node4" class="node">
<title>ann1</title>
<polygon fill="none" stroke="gray" points="171.5,-75 16.5,-75 16.5,-39 177.5,-39 177.5,-69 171.5,-75"/>
<polyline fill="none" stroke="gray" points="171.5,-75 171.5,-69 "/>
<polyline fill="none" stroke="gray" points="177.5,-69 171.5,-69 "/>
<g id="a_node4_0"><a xlink:href="http://www.w3.org/ns/prov#type" xlink:title="&lt;TABLE&gt;">
<text text-anchor="start" x="27" y="-54" font-family="Times,serif" font-size="10.00">prov:type</text>
</a>
</g>
<g id="a_node4_1"><a xlink:href="http://openprovenance.org/var#nature_of_inclusion" xlink:title="&lt;TABLE&gt;">
<text text-anchor="start" x="69" y="-54" font-family="Times,serif" font-size="10.00">var:nature_of_inclusion</text>
</a>
</g>
</g>
<!-- ann1&#45;&gt;b1 -->
<g id="edge3" class="edge">
<title>ann1&#45;&gt;b1</title>
<path fill="none" stroke="gray" stroke-dasharray="5,2" d="M109.61,-75.03C122.5,-92.42 141.09,-117.52 144.47,-122.08"/>
</g>
</g>
</svg>
